<?xml version="1.0" standalone="no"?><!DOCTYPE svg PUBLIC "-//W3C//DTD SVG 1.1//EN" "http://www.w3.org/Graphics/SVG/1.1/DTD/svg11.dtd"><svg t="1739189800526" class="icon" viewBox="0 0 1024 1024" version="1.1" xmlns="http://www.w3.org/2000/svg" p-id="7162" xmlns:xlink="http://www.w3.org/1999/xlink" width="200" height="200"><path d="M964.681143 566.564571c-25.453714-42.422857-8.484571-93.257143 33.865143-118.710857l-45.202286-76.361143a82.944 82.944 0 0 1-45.275429 11.337143c-48.054857 0-90.404571-39.570286-90.404571-87.625143H724.333714c0 14.116571-2.779429 31.085714-11.264 42.422858-25.453714 42.349714-79.140571 53.613714-121.563428 31.012571l-45.202286 76.361143c14.116571 8.484571 25.453714 16.969143 33.865143 31.085714 25.453714 42.422857 8.484571 93.257143-33.865143 118.710857l45.202286 76.361143c14.116571-8.484571 28.306286-11.337143 45.275428-11.337143a92.16 92.16 0 0 1 90.404572 84.845715h90.477714c0-14.116571 2.852571-28.306286 11.337143-42.422858 25.380571-42.422857 79.140571-53.686857 121.490286-31.085714l45.275428-76.361143a50.468571 50.468571 0 0 1-31.085714-28.233143z" fill="#2098F6" p-id="7163"></path><path d="M769.609143 614.765714c-53.686857 0-96.036571-42.422857-96.036572-90.404571s42.422857-90.404571 96.036572-90.404572c53.686857 0 96.036571 42.422857 96.036571 90.404572s-42.422857 90.404571-96.036571 90.404571z" fill="#EEF9FF" p-id="7164"></path><path d="M754.102857 988.964571H118.564571c-48.786286 0-88.502857-39.716571-88.502857-88.502857V118.564571c0-48.786286 39.716571-88.502857 88.502857-88.502857h635.392c48.859429 0 88.502857 39.716571 88.502858 88.502857v94.72h-73.728V118.637714a14.774857 14.774857 0 0 0-14.774858-14.774857H118.637714a14.774857 14.774857 0 0 0-14.774857 14.774857V900.388571c0 8.192 6.582857 14.774857 14.774857 14.774858h635.392c8.192 0 14.774857-6.582857 14.774857-14.774858v-94.646857h73.801143v94.646857c0 48.859429-39.716571 88.576-88.502857 88.576z" fill="#2098F6" p-id="7165"></path><path d="M220.086857 287.670857h296.228572v73.801143h-296.228572V287.670857z m-2.194286 152.576h296.228572v73.728h-296.228572V440.246857z m0 142.262857h296.228572v73.728h-296.228572V582.509714z m0 148.041143h296.228572v73.801143h-296.228572V730.550857z" fill="#2098F6" p-id="7166"></path></svg>