<?xml version="1.0" standalone="no"?><!DOCTYPE svg PUBLIC "-//W3C//DTD SVG 1.1//EN" "http://www.w3.org/Graphics/SVG/1.1/DTD/svg11.dtd"><svg t="1739177347844" class="icon" viewBox="0 0 1024 1024" version="1.1" xmlns="http://www.w3.org/2000/svg" p-id="12111" xmlns:xlink="http://www.w3.org/1999/xlink" width="88" height="88"><path d="M132 82m70 0l518.007 0q70 0 70 70l0 648.588q0 70-70 70l-518.007 0q-70 0-70-70l0-648.588q0-70 70-70Z" fill="#323232" p-id="12112"></path><path d="M178 130m38 0l489 0q38 0 38 38l0 617q0 38-38 38l-489 0q-38 0-38-38l0-617q0-38 38-38Z" fill="#FFFFFF" p-id="12113"></path><path d="M662.601 223.803H257.487c-9.809 0-17.774 9.905-17.774 19.707 0 9.803 7.965 19.707 17.774 19.707h405.139c9.814 0 17.774-9.904 17.774-19.707 0-9.802-7.99-19.707-17.799-19.707z m17.775 147.012c0-9.802-7.965-19.707-17.78-19.707H257.488c-9.809 0-17.774 9.91-17.774 19.707 0 9.807 7.965 19.712 17.774 19.712h405.139c9.785 0 17.75-9.905 17.75-19.712zM257.463 478.408c-9.814 0-17.774 9.904-17.774 19.712 0 9.807 7.96 19.707 17.774 19.707h259.992c9.819 0 17.775-9.905 17.775-19.707 0-9.808-7.956-19.712-17.775-19.712H257.463z m203.679 127.3h-203.68c-9.813 0-17.773 9.904-17.773 19.707 0 9.807 7.96 19.717 17.774 19.717h203.679c9.814 0 17.774-9.91 17.774-19.717 0-9.798-7.955-19.707-17.774-19.707z" fill="#323232" p-id="12114"></path><path d="M490 572m43 0l343 0q43 0 43 43l0 229q0 43-43 43l-343 0q-43 0-43-43l0-229q0-43 43-43Z" fill="#323232" p-id="12115"></path><path d="M529 612m26 0l298 0q26 0 26 26l0 183q0 26-26 26l-298 0q-26 0-26-26l0-183q0-26 26-26Z" fill="#8DABFF" p-id="12116"></path><path d="M755 726m12 0l64 0q12 0 12 12l0 0q0 12-12 12l-64 0q-12 0-12-12l0 0q0-12 12-12Z" fill="#323232" p-id="12117"></path><path d="M755 784m12 0l64 0q12 0 12 12l0 0q0 12-12 12l-64 0q-12 0-12-12l0 0q0-12 12-12Z" fill="#323232" p-id="12118"></path><path d="M629 726c41.974 0 76 29.826 76 66.618 0 0.462-0.005 0.922-0.016 1.382h-22.255c0-25.342-24.055-45.886-53.729-45.886S575.271 768.658 575.271 794H553.016c-0.01-0.46-0.016-0.92-0.016-1.382C553 755.826 587.026 726 629 726z" fill="#323232" p-id="12119"></path><path d="M631 692m-65 0a65 65 0 1 0 130 0 65 65 0 1 0-130 0Z" fill="#FFFFFF" p-id="12120"></path><path d="M631 627c35.899 0 65 29.101 65 65s-29.101 65-65 65-65-29.101-65-65 29.101-65 65-65z m0 22.222c-23.626 0-42.778 19.152-42.778 42.778 0 23.626 19.152 42.778 42.778 42.778 23.626 0 42.778-19.152 42.778-42.778 0-23.626-19.152-42.778-42.778-42.778z" fill="#323232" p-id="12121"></path><path d="M564 794m-11 0a11 11 0 1 0 22 0 11 11 0 1 0-22 0Z" fill="#323232" p-id="12122"></path><path d="M694 794m-11 0a11 11 0 1 0 22 0 11 11 0 1 0-22 0Z" fill="#323232" p-id="12123"></path></svg>