<?xml version="1.0" standalone="no"?><!DOCTYPE svg PUBLIC "-//W3C//DTD SVG 1.1//EN" "http://www.w3.org/Graphics/SVG/1.1/DTD/svg11.dtd"><svg t="1739094042028" class="icon" viewBox="0 0 1024 1024" version="1.1" xmlns="http://www.w3.org/2000/svg" p-id="51281" xmlns:xlink="http://www.w3.org/1999/xlink" width="200" height="200"><path d="M56.888889 170.666667m113.777778 0l682.666666 0q113.777778 0 113.777778 113.777777l0 455.111112q0 113.777778-113.777778 113.777777l-682.666666 0q-113.777778 0-113.777778-113.777777l0-455.111112q0-113.777778 113.777778-113.777777Z" fill="#3A75EC" p-id="51282"></path><path d="M236.316444 432.583111a42.154667 42.154667 0 0 0-36.522666 19.114667c-8.874667 12.743111-13.312 30.492444-13.312 53.248 0 22.983111 4.437333 40.504889 13.312 52.565333 8.874667 11.832889 22.300444 17.749333 40.277333 17.749333 10.695111 0 21.048889-1.479111 31.061333-4.437333 10.24-2.958222 20.48-6.599111 30.72-10.922667v55.637334a142.961778 142.961778 0 0 1-33.109333 10.24c-11.150222 2.275556-23.096889 3.413333-35.84 3.413333-26.396444 0-48.014222-5.233778-64.853333-15.701333a93.240889 93.240889 0 0 1-37.205334-43.690667 166.570667 166.570667 0 0 1-11.946666-65.194667c0-24.576 4.551111-46.307556 13.653333-65.194666 9.102222-18.887111 22.414222-33.678222 39.936-44.373334 17.749333-10.922667 39.253333-16.384 64.512-16.384a180.679111 180.679111 0 0 1 75.434667 17.066667l-20.138667 51.882667a178.915556 178.915556 0 0 0-26.965333-10.581334 93.297778 93.297778 0 0 0-29.013334-4.437333z m223.402667 1.024a96.426667 96.426667 0 0 1 19.797333 2.048l-5.802666 61.44a103.196444 103.196444 0 0 0-22.186667-2.048c-5.461333 0-11.377778 0.796444-17.749333 2.389333a30.72 30.72 0 0 0-16.042667 10.581334c-4.551111 5.233778-6.826667 13.539556-6.826667 24.917333V625.777778H345.713778V437.020444h48.469333l10.24 30.037334h3.072c5.233778-9.329778 12.515556-17.180444 21.845333-23.552a52.565333 52.565333 0 0 1 30.378667-9.898667z m219.534222 97.28c0 31.630222-8.419556 55.978667-25.258666 73.045333-16.839111 16.839111-39.936 25.258667-69.290667 25.258667-18.204444 0-34.360889-3.754667-48.469333-11.264a84.48 84.48 0 0 1-33.450667-33.450667c-7.964444-14.791111-11.946667-32.654222-11.946667-53.589333 0-31.175111 8.419556-55.182222 25.258667-72.021333 16.839111-16.839111 40.049778-25.258667 69.632-25.258667 18.204444 0 34.247111 3.754667 48.128 11.264 14.108444 7.509333 25.144889 18.545778 33.109333 33.109333 8.192 14.336 12.288 31.971556 12.288 52.906667z m-122.197333 0c0 16.156444 2.161778 28.558222 6.485333 37.205333 4.323556 8.419556 11.605333 12.629333 21.845334 12.629334 10.012444 0 17.066667-4.209778 21.162666-12.629334 4.323556-8.647111 6.485333-21.048889 6.485334-37.205333 0-16.156444-2.161778-28.330667-6.485334-36.522667-4.096-8.192-11.264-12.288-21.504-12.288a22.869333 22.869333 0 0 0-21.504 12.288c-4.323556 8.192-6.485333 20.366222-6.485333 36.522667z m277.390222-97.28c19.569778 0 35.498667 5.461333 47.786667 16.384 12.288 10.922667 18.432 28.558222 18.432 52.906667V625.777778h-65.194667V522.695111c0-12.515556-1.820444-21.959111-5.461333-28.330667-3.640889-6.371556-9.443556-9.557333-17.408-9.557333-12.288 0-20.593778 5.006222-24.917333 15.018667-4.096 10.012444-6.144 24.462222-6.144 43.349333V625.777778h-65.194667V437.020444h49.152l8.874667 24.917334h2.389333a62.008889 62.008889 0 0 1 23.210667-20.821334c9.784889-5.006222 21.276444-7.509333 34.474666-7.509333z" fill="#FFFFFF" p-id="51283"></path></svg>