<?xml version="1.0" standalone="no"?><!DOCTYPE svg PUBLIC "-//W3C//DTD SVG 1.1//EN" "http://www.w3.org/Graphics/SVG/1.1/DTD/svg11.dtd"><svg t="1739107370916" class="icon" viewBox="0 0 1024 1024" version="1.1" xmlns="http://www.w3.org/2000/svg" p-id="59902" xmlns:xlink="http://www.w3.org/1999/xlink" width="200" height="200"><path d="M1024 512c0 282.72-229.28 512-512 512S0 794.72 0 512 229.28 0 512 0s512 229.28 512 512" fill="#5A89FF" p-id="59903"></path><path d="M765.28 758.08h-158.4v-48.64h158.4c15.68 0 33.28 0 36.96-2.24 2.08-3.36 2.08-21.12 2.08-36.8V353.6c0-15.68 0-33.28-2.24-36.96-3.36-2.08-21.12-2.08-36.8-2.08h-158.4v-48.64h158.4c34.24 0 54.88 0 71.2 16.32 16.48 16.48 16.48 37.12 16.48 71.36v316.8c0 34.24 0 54.88-16.32 71.2-16.48 16.48-37.12 16.48-71.36 16.48z" fill="#FFFFFF" p-id="59904"></path><path d="M416.96 758.08h-158.4c-34.24 0-54.88 0-71.2-16.32-16.48-16.48-16.48-37.12-16.48-71.36V353.6c0-34.24 0-54.88 16.32-71.2 16.48-16.48 37.12-16.48 71.36-16.48h158.4v48.64h-158.4c-15.68 0-33.28 0-36.96 2.24-2.08 3.36-2.08 21.12-2.08 36.8v316.8c0 15.68 0 33.28 2.24 36.96 3.36 2.08 21.12 2.08 36.8 2.08h158.4v48.64z" fill="#FFFFFF" p-id="59905"></path><path d="M487.68 227.04h48.64v570.08h-48.64z" fill="#FFFFFF" p-id="59906"></path></svg>