<?xml version="1.0" standalone="no"?><!DOCTYPE svg PUBLIC "-//W3C//DTD SVG 1.1//EN" "http://www.w3.org/Graphics/SVG/1.1/DTD/svg11.dtd"><svg t="1739090749305" class="icon" viewBox="0 0 1024 1024" version="1.1" xmlns="http://www.w3.org/2000/svg" p-id="44575" xmlns:xlink="http://www.w3.org/1999/xlink" width="200" height="200"><path d="M934.4 723.2c0 44.8-38.4 83.2-83.2 83.2H172.8c-44.8 0-83.2-38.4-83.2-83.2V300.8c0-44.8 38.4-83.2 83.2-83.2h678.4c44.8 0 83.2 38.4 83.2 83.2v422.4z" fill="#3484FE" opacity=".2" p-id="44576"></path><path d="M851.2 128H172.8C76.8 128 0 204.8 0 300.8v422.4C0 819.2 76.8 896 172.8 896h678.4c96 0 172.8-76.8 172.8-172.8V300.8c0-96-76.8-172.8-172.8-172.8z m83.2 595.2c0 44.8-38.4 83.2-83.2 83.2H172.8c-44.8 0-83.2-38.4-83.2-83.2V300.8c0-44.8 38.4-83.2 83.2-83.2h678.4c44.8 0 83.2 38.4 83.2 83.2v422.4z" fill="#3484FE" p-id="44577"></path><path d="M582.4 460.8h160c25.6 0 44.8-19.2 44.8-44.8s-19.2-44.8-44.8-44.8h-160c-25.6 0-44.8 19.2-44.8 44.8s19.2 44.8 44.8 44.8z m243.2 102.4H582.4c-25.6 0-44.8 19.2-44.8 44.8s19.2 44.8 44.8 44.8h243.2c25.6 0 44.8-19.2 44.8-44.8s-19.2-44.8-44.8-44.8z m-422.4-57.6c19.2-19.2 25.6-44.8 25.6-70.4 0-57.6-44.8-102.4-108.8-102.4s-102.4 44.8-102.4 102.4c0 25.6 12.8 51.2 25.6 70.4-57.6 32-96 89.6-96 153.6 0 19.2 12.8 32 32 32s32-12.8 32-32c0-64 51.2-108.8 108.8-108.8 64 0 108.8 51.2 108.8 108.8 0 19.2 12.8 32 32 32s32-12.8 32-32c6.4-64-32-121.6-89.6-153.6zM320 480c-25.6 0-38.4-19.2-38.4-44.8 0-25.6 19.2-38.4 38.4-38.4 25.6 0 44.8 19.2 44.8 44.8 0 25.6-19.2 38.4-44.8 38.4z" fill="#3484FE" p-id="44578"></path></svg>