<?xml version="1.0" standalone="no"?><!DOCTYPE svg PUBLIC "-//W3C//DTD SVG 1.1//EN" "http://www.w3.org/Graphics/SVG/1.1/DTD/svg11.dtd"><svg t="1753753979450" class="icon" viewBox="0 0 1024 1024" version="1.1" xmlns="http://www.w3.org/2000/svg" p-id="5422" xmlns:xlink="http://www.w3.org/1999/xlink" width="256" height="256"><path d="M853.333333 143.719298a107.789474 107.789474 0 0 1 107.789474 107.789474v538.947368a107.789474 107.789474 0 0 1-107.789474 107.789474h-4.491228c0-27.180912-21.557895-49.22386-48.128-49.22386-26.570105 0-48.110035 22.042947-48.110035 49.22386h-96.238035c0-27.180912-21.557895-49.22386-48.128-49.22386-26.58807 0-48.110035 22.042947-48.110035 49.22386H463.854035c0-27.180912-21.53993-49.22386-48.110035-49.22386-26.58807 0-48.128 22.042947-48.128 49.22386h-96.238035c0-27.180912-21.557895-49.22386-48.110035-49.22386-26.58807 0-48.128 22.042947-48.128 49.22386H170.666667a107.789474 107.789474 0 0 1-107.789474-107.789474V251.508772a107.789474 107.789474 0 0 1 107.789474-107.789474h682.666666z m-426.666666 162.043509a7.185965 7.185965 0 0 0-7.635088 2.048l-0.862316 1.185684-91.046175 157.282807-91.028211-157.282807a7.185965 7.185965 0 0 0-8.479438-3.233684l-1.311439 0.592842-34.079439 19.599719a7.185965 7.185965 0 0 0-3.233684 8.497404l0.610807 1.329403 90.579088 156.528281h-79.566597a7.185965 7.185965 0 0 0-7.02428 5.748772l-0.161684 1.437193v39.397053a7.185965 7.185965 0 0 0 5.748771 7.042245l1.437193 0.14372h100.603509v35.84h-100.603509a7.185965 7.185965 0 0 0-7.02428 5.748772l-0.161684 1.437193v39.379087a7.185965 7.185965 0 0 0 5.748771 7.042246l1.437193 0.143719h100.603509v82.333193a7.185965 7.185965 0 0 0 5.748772 7.024281l1.437193 0.161684h39.522807a7.185965 7.185965 0 0 0 7.042246-5.748772l0.143719-1.437193v-82.333193h100.603509a7.185965 7.185965 0 0 0 7.042245-5.730807l0.14372-1.437193v-39.397052a7.185965 7.185965 0 0 0-5.730807-7.042246l-1.437193-0.143719h-100.621474v-35.84h100.603509a7.185965 7.185965 0 0 0 7.042245-5.748772l0.14372-1.437193v-39.379088a7.185965 7.185965 0 0 0-5.730807-7.042246l-1.437193-0.143719-81.668491-0.017965 90.615017-156.528281 0.592842-1.329403a7.185965 7.185965 0 0 0-1.077895-6.593123l-0.970105-1.041965-1.185684-0.862316-34.061474-19.581754-1.329403-0.610807zM727.578947 520.982456H529.964912v53.894737h197.614035v-53.894737z m91.100071-107.789474H529.964912v53.894737h288.714106v-53.894737z" fill="#00AAFF" p-id="5423"></path></svg>