<?xml version="1.0" standalone="no"?><!DOCTYPE svg PUBLIC "-//W3C//DTD SVG 1.1//EN" "http://www.w3.org/Graphics/SVG/1.1/DTD/svg11.dtd"><svg t="1739194641329" class="icon" viewBox="0 0 1024 1024" version="1.1" xmlns="http://www.w3.org/2000/svg" p-id="10607" xmlns:xlink="http://www.w3.org/1999/xlink" width="200" height="200"><path d="M51.2 870.4a51.2 51.2 0 0 1 51.2-51.2h153.6a51.2 51.2 0 1 1 0 102.4H102.4a51.2 51.2 0 0 1-51.2-51.2z m204.8-102.4H153.6q-42.3936 0-72.3968-30.0032T51.2 665.6V204.8q0-42.3936 30.0032-72.3968T153.6 102.4h716.8q42.3936 0 72.3968 30.0032T972.8 204.8v61.44h-102.4V204.8H153.6v460.8h102.4v102.4z m51.2-51.2a51.2 51.2 0 1 1-102.4 0 51.2 51.2 0 0 1 102.4 0z m665.6-450.56a51.2 51.2 0 1 1-102.4 0 51.2 51.2 0 0 1 102.4 0z" fill="#8A9099" p-id="10608"></path><path d="M742.4 461.7216a35.6864 35.6864 0 0 0-13.824 17.1008 41.8816 41.8816 0 0 0 1.1264 27.4944c2.8672 9.3184 8.5504 17.408 16.2304 23.2448a29.184 29.184 0 0 0 13.312 5.12 24.2688 24.2688 0 0 0 13.9776-2.4064c5.12-2.8672 9.216-7.3216 11.6224-12.6464a45.7728 45.7728 0 0 0 3.7888-16.9984 57.4976 57.4976 0 0 0-2.7648-22.016 36.5056 36.5056 0 0 0-14.2336-18.944 28.5184 28.5184 0 0 0-11.264-4.1984 23.7056 23.7056 0 0 0-18.0224 4.608" fill="#FFFFFF" p-id="10609"></path><path d="M950.8352 759.808a308.0192 308.0192 0 0 0-17.408-60.3136 172.8512 172.8512 0 0 0-21.5552-40.7552c-9.0624-12.032-20.5312-22.1696-29.3888-34.4064-4.7104-6.3488-8.6528-13.4144-13.5168-19.6096-1.9968-4.096-3.8912-8.192-5.7856-12.288-5.8368-12.8-11.2128-25.856-18.1248-37.9904l-3.3792-5.632c-0.8704-11.6736-2.1504-23.3472-2.7648-35.072a331.3664 331.3664 0 0 0-5.9392-70.0416 116.3776 116.3776 0 0 0-13.8752-31.232 107.1616 107.1616 0 0 0-27.2384-29.2864 104.8576 104.8576 0 0 0-60.2624-19.3024 94.6688 94.6688 0 0 0-45.6704 10.496c-14.848 8.1408-26.8288 20.6336-34.3552 35.7376-7.0656 15.2576-10.752 31.744-11.008 48.5888-0.5632 16.4864 0.9728 32.8704 1.6384 49.3568 0.6656 17.1008 0.256 34.304 1.6896 51.3536 0.4096 5.4784 1.0752 10.9568 1.0752 16.5376 0 2.7648-0.1536 5.5296-0.2048 8.192l-0.256 0.6144a350.8224 350.8224 0 0 1-24.6784 36.4544c-6.2976 7.9872-12.5952 15.872-18.944 23.6544a141.056 141.056 0 0 0-20.8384 30.72 220.3136 220.3136 0 0 0-9.0624 29.6448l-0.256 0.768a230.5024 230.5024 0 0 1-14.592 36.864 481.6384 481.6384 0 0 1-9.8816 19.3024l-3.9424 7.424a124.3136 124.3136 0 0 0-6.6048 13.7216 46.08 46.08 0 0 0-2.4576 8.7552 45.824 45.824 0 0 0 1.1776 18.944c0.3584 1.536 0.8704 3.072 1.3824 4.608 1.5872 4.5056 3.4816 8.96 5.7344 13.2096 1.024 1.9456 2.1504 3.84 3.1744 5.8368l0.9216 1.3824c1.024 1.8432 2.1504 3.6352 3.2256 5.376l0.1536 0.256c1.2288 2.048 2.6624 3.9936 3.9424 5.9904l0.256 0.256 4.1984 5.7856c5.4272 21.0944 15.36 40.7552 29.0304 57.7024-2.0992 3.7376-3.9936 7.3728-6.144 11.0592a168.96 168.96 0 0 0-18.3296 34.6112 41.6768 41.6768 0 0 0-1.3824 19.456c1.024 6.5536 4.4032 12.4416 9.472 16.7424a28.8256 28.8256 0 0 0 11.5712 5.376 50.0224 50.0224 0 0 0 12.8 1.024c16.2304-1.1776 32.3072-4.4032 47.8208-9.3696 9.3696-2.5088 18.7392-4.6592 28.2112-6.5536a166.6048 166.6048 0 0 1 37.376-4.352c6.912 0.768 13.7728 1.024 20.6848 0.768l2.56-0.1536c1.792 0.2048 3.584 0.256 5.4272 0.4096a373.8112 373.8112 0 0 1 67.6352 9.9328c16.0256 4.864 32.4608 8.0384 49.2032 9.4208 4.4032 0.256 8.8064-0.1024 13.2096-1.024a29.9008 29.9008 0 0 0 11.8784-5.376 27.4944 27.4944 0 0 0 9.5744-16.7424 41.6768 41.6768 0 0 0-1.3824-19.456 164.352 164.352 0 0 0-18.6368-34.5088c-2.6112-4.4544-5.12-9.0624-7.7312-13.5168a239.616 239.616 0 0 0 29.7472-41.2672c5.12 0.3072 10.1376-0.3072 15.0528-1.8944 12.8-4.3008 23.9104-12.6464 31.6928-23.7568a35.328 35.328 0 0 0 5.2224-10.8032 69.632 69.632 0 0 0 10.1376-25.8048c2.304-15.1552 1.9456-30.72-1.1264-45.7728h-0.1536z" fill="#111D3E" p-id="10610"></path><path d="M669.6448 552.96a25.3952 25.3952 0 0 0-4.7104 9.9328c-0.8192 3.584-1.3312 7.2704-1.3824 10.9568 0.2048 7.3728-0.3584 14.7456-1.8432 22.016a68.096 68.096 0 0 1-11.4176 20.6336c-8.5504 10.752-15.2576 22.784-19.8656 35.6352a63.488 63.488 0 0 0-2.2528 24.576 262.656 262.656 0 0 0-22.8864 41.472 228.096 228.096 0 0 0-18.6368 68.9664c-3.1744 29.2864 1.1264 58.88 12.3904 86.016 8.2944 19.5584 20.8384 37.12 36.8128 51.2a120.6784 120.6784 0 0 0 134.7584 16.7936c16.896-9.8304 32.3072-22.016 45.7728-36.1472 8.704-7.8848 16.4352-16.7424 23.2448-26.368a146.944 146.944 0 0 0 19.4048-64.3584 209.408 209.408 0 0 0-12.3904-116.2752 126.976 126.976 0 0 0-23.2448-33.28 184.32 184.32 0 0 0-14.7456-49.664c-5.2736-11.3664-11.6736-22.1696-16.5376-33.792-1.9968-4.7616-3.7376-9.5744-5.9392-14.1824a44.032 44.032 0 0 0-8.6016-12.5952 34.9696 34.9696 0 0 0-13.568-7.8336 56.1152 56.1152 0 0 0-15.4624-2.6112c-10.5472-0.512-21.1456 0.768-31.5392 0.4096-8.3968-0.3584-16.6912-1.792-25.088-1.3312a38.7584 38.7584 0 0 0-12.1856 2.56 24.4736 24.4736 0 0 0-10.0864 7.3216m3.328-91.392a17.2032 17.2032 0 0 0-10.496 4.7104 23.2448 23.2448 0 0 0-6.144 9.8304 59.904 59.904 0 0 0-1.4336 23.3984c0.1536 7.0656 1.4336 14.1824 3.7376 20.8896a27.3408 27.3408 0 0 0 5.7344 8.9088 18.1248 18.1248 0 0 0 18.944 4.9664 21.248 21.248 0 0 0 8.3968-5.12 28.3136 28.3136 0 0 0 7.168-12.4928 60.2112 60.2112 0 0 0-1.0752-32.4096 39.936 39.936 0 0 0-9.216-15.6672 26.0096 26.0096 0 0 0-7.0656-5.2224 18.3808 18.3808 0 0 0-8.5504-1.792z m69.4784 0a35.6864 35.6864 0 0 0-13.824 17.1008 41.8816 41.8816 0 0 0 1.1264 27.5456c2.816 9.2672 8.5504 17.408 16.2304 23.2448a29.184 29.184 0 0 0 13.312 5.12 24.2688 24.2688 0 0 0 13.9264-2.4064c5.12-2.8672 9.216-7.3216 11.6224-12.6464a45.7216 45.7216 0 0 0 3.84-17.0496 57.4976 57.4976 0 0 0-2.816-22.016 36.5568 36.5568 0 0 0-14.2336-18.8928 28.5184 28.5184 0 0 0-11.264-4.1984 23.7056 23.7056 0 0 0-17.9712 4.608" fill="#FFFFFF" p-id="10611"></path><path d="M756.5824 480.1536a13.7216 13.7216 0 0 0-6.5024 2.048 17.408 17.408 0 0 0-5.0176 4.864 24.9344 24.9344 0 0 0-3.9424 13.056 27.0848 27.0848 0 0 0 1.3824 10.24 18.7392 18.7392 0 0 0 5.7856 8.3968 16.2304 16.2304 0 0 0 19.7632 0.9728 17.92 17.92 0 0 0 5.5296-6.3488 24.8832 24.8832 0 0 0 0.1536-22.528 20.2752 20.2752 0 0 0-10.8032-9.8304 15.7184 15.7184 0 0 0-6.3488-1.024" fill="#111D3E" p-id="10612"></path><path d="M672.9728 461.6704a17.2032 17.2032 0 0 0-10.5472 4.7104 23.2448 23.2448 0 0 0-6.144 9.8304 59.904 59.904 0 0 0-1.3824 23.3984c0.1536 7.0656 1.3824 14.1824 3.7376 20.8896a26.5728 26.5728 0 0 0 5.7344 8.9088 18.1248 18.1248 0 0 0 18.944 4.9664 21.248 21.248 0 0 0 8.3968-5.12 28.2624 28.2624 0 0 0 7.168-12.4928 60.2112 60.2112 0 0 0-1.0752-32.4096 39.936 39.936 0 0 0-9.216-15.6672 26.0096 26.0096 0 0 0-7.0656-5.2224 18.3808 18.3808 0 0 0-8.5504-1.792z" fill="#FFFFFF" p-id="10613"></path><path d="M663.552 494.1824a29.696 29.696 0 0 0 0.8192 14.7968 24.0128 24.0128 0 0 0 10.3424 12.288c1.9968 1.024 4.1984 1.3312 6.4 0.8192a9.0624 9.0624 0 0 0 4.864-3.2768 16.6912 16.6912 0 0 0 2.7136-5.3248 29.5936 29.5936 0 0 0-0.3072-17.408 22.528 22.528 0 0 0-6.656-10.8544 13.824 13.824 0 0 0-5.376-2.8672 9.3696 9.3696 0 0 0-6.144 0.512 10.6496 10.6496 0 0 0-4.7616 4.7616 20.2752 20.2752 0 0 0-1.9968 6.5024" fill="#111D3E" p-id="10614"></path><path d="M654.2848 555.6224a5.0688 5.0688 0 0 0 0.7168 1.8432c0.6656 1.024 1.4848 1.8432 2.5088 2.5088l2.816 1.792c5.0688 3.4304 9.5232 7.68 13.1072 12.6464 4.4032 6.8608 9.8816 13.0048 16.0768 18.2784a33.4848 33.4848 0 0 0 16.0768 5.7344c6.7584 0.512 13.568-0.256 20.0704-2.304 5.9904-1.7408 11.776-4.2496 17.152-7.5264 9.3184-7.4752 19.2512-14.0288 29.7984-19.5072 2.4576-0.8704 4.9664-1.536 7.2704-2.6112a11.4688 11.4688 0 0 0 5.7344-5.12 24.832 24.832 0 0 0 1.3824-7.3216c0.3584-2.6112 1.2288-5.1712 1.6896-7.8336a13.824 13.824 0 0 0-0.6144-7.8848 10.752 10.752 0 0 0-4.608-4.608 16.0768 16.0768 0 0 0-6.3488-1.536 97.9968 97.9968 0 0 0-13.1584 1.28c-5.8368 0.512-11.6736-0.256-17.5616 0-7.2192 0.2048-14.4384 1.792-21.76 2.0992-8.3456 0.4608-16.5888-0.8704-24.9344-1.2288a48.896 48.896 0 0 0-10.8544 0.512 23.7056 23.7056 0 0 0-9.984 3.84 89.2416 89.2416 0 0 0-7.8336 7.0144 21.7088 21.7088 0 0 1-4.3008 3.0208 10.3424 10.3424 0 0 1-5.12 1.1776 8.3968 8.3968 0 0 0-2.7136 0 4.5056 4.5056 0 0 0-1.3824 0.8704l-1.1264 1.3312a22.6304 22.6304 0 0 0-1.8944 3.4304" fill="#F2A949" p-id="10615"></path><path d="M672.6144 537.2416a158.208 158.208 0 0 0-8.6016 5.632 11.3664 11.3664 0 0 0-3.7376 3.7376 7.8848 7.8848 0 0 0-0.6656 3.6352 31.6416 31.6416 0 0 1 0 3.7376c-0.1024 0.768-0.3584 1.6896-0.3584 2.56a3.4304 3.4304 0 0 0 0.7168 2.304 3.1744 3.1744 0 0 0 1.4848 0.8192l1.6384 0.3584a16.384 16.384 0 0 1 6.8096 3.9424c1.9968 1.7408 3.7376 3.7888 5.888 5.4784 5.8368 4.4032 12.9024 6.656 20.1728 6.6048 7.2192-0.1536 14.3872-1.1776 21.3504-3.0208 5.4784-1.1776 10.9056-2.6112 16.128-4.4544 8.192-3.072 15.7184-7.5264 22.272-13.312 2.816-2.7648 5.8368-5.2224 9.0624-7.5264 2.9184-1.792 6.3488-3.072 9.2672-4.8128l0.8192-0.512c0.2048-0.2048 0.4096-0.4096 0.5632-0.7168a2.048 2.048 0 0 0 0-1.5872 3.6864 3.6864 0 0 0-0.6656-1.3312 9.984 9.984 0 0 0-1.2288-1.2288 20.6336 20.6336 0 0 0-11.5712-4.0448c-4.1984-0.256-8.2432 0-12.3392-0.768a85.0432 85.0432 0 0 1-11.1616-3.2256 76.8 76.8 0 0 0-40.4992-2.0992 90.624 90.624 0 0 0-25.344 9.8304z" fill="#604405" p-id="10616"></path><path d="M671.6416 527.3088a54.1696 54.1696 0 0 0-11.3152 10.24 24.4224 24.4224 0 0 0-4.4544 7.5776 52.3776 52.3776 0 0 0-1.8432 9.2672c0 0.4608 0.1024 0.8704 0.2048 1.2288a2.7648 2.7648 0 0 0 0.6656 1.1264 3.584 3.584 0 0 0 1.8944 0.9216c0.6656 0.1536 1.4336 0.1536 2.1504 0.256 3.2256 0.512 6.1952 1.792 8.8576 3.6864 2.6112 1.8432 5.12 3.9424 7.7824 5.7344a41.472 41.472 0 0 0 20.3776 5.7344c7.168 0.1536 14.2336-0.5632 21.1968-2.0992 5.5296-1.024 11.008-2.56 16.384-4.608 7.936-3.4304 15.4112-7.8848 22.2208-13.312a99.0208 99.0208 0 0 0 11.9808-10.24 10.752 10.752 0 0 1 3.4304-2.048 12.1856 12.1856 0 0 1 6.0928 0c1.4336 0.3072 2.9696 0.512 4.5056 0.512 0.8192 0 1.536-0.2048 2.304-0.4096a4.2496 4.2496 0 0 0 2.7648-4.096 5.632 5.632 0 0 0-0.8192-2.816 9.984 9.984 0 0 0-4.608-3.7376 42.5984 42.5984 0 0 0-7.8848-2.3552 111.5136 111.5136 0 0 1-23.9104-8.704c-3.7888-1.8944-7.3728-3.9424-11.2128-5.888a65.792 65.792 0 0 0-11.8272-5.2736 46.6432 46.6432 0 0 0-28.5696 1.3312c-10.24 3.584-19.4048 9.7792-26.4192 18.0224" fill="#F2A949" p-id="10617"></path><path d="M719.2576 515.6864c0.512 1.6384 3.1744 1.3824 4.7104 2.0992 1.536 0.7168 2.4064 2.0992 3.84 2.2528 1.536 0.1536 3.6864-0.512 3.8912-1.8944 0.3072-1.8944-2.5088-3.072-4.2496-3.7376a8.8064 8.8064 0 0 0-7.3216-0.1536c-0.512 0.256-1.024 0.9216-0.8704 1.4336z m-25.1392-0.9216c-1.9968-0.6144-5.2224 2.816-4.2496 4.608 0.3072 0.512 1.1776 1.1264 1.7408 0.8192 0.6144-0.3072 1.6896-2.2528 2.6624-2.9184 0.7168-0.5632 0.5632-2.2528-0.1536-2.5088z" fill="#CD8907" p-id="10618"></path><path d="M990.5664 928.6144a36.864 36.864 0 0 1-6.2464 10.3936c-6.144 6.5536-13.568 11.776-21.76 15.4624a448 448 0 0 0-40.6016 21.2992c-8.5504 5.6832-16.5376 12.0832-23.9104 19.2a193.4848 193.4848 0 0 1-19.456 17.664 55.808 55.808 0 0 1-24.2176 10.1888 58.624 58.624 0 0 1-31.488-4.7616 37.376 37.376 0 0 1-17.5616-13.6704 41.1136 41.1136 0 0 1-4.9664-21.76c0.4608-13.312 2.048-26.624 4.8128-39.68 1.8944-10.9056 3.7888-21.8112 4.9664-32.8192a339.456 339.456 0 0 0 0.768-60.3648 46.7968 46.7968 0 0 1 0-10.0864 12.9024 12.9024 0 0 1 13.1584-12.032 44.7488 44.7488 0 0 1 9.3696 0.8192c7.2704 0.8704 14.592 2.0992 21.76 3.7888 4.4544 1.1776 8.9088 2.7648 13.3632 3.9936 7.4752 2.2016 15.36 2.816 23.1424 2.0992 8.0896-1.8944 16.384-3.1232 24.7296-3.84a39.1168 39.1168 0 0 1 10.0864 1.7408 21.8624 21.8624 0 0 1 9.0624 5.0176 20.8384 20.8384 0 0 1 4.2496 6.656 41.5744 41.5744 0 0 1 2.56 11.52c0.1024 3.5328 0.4096 7.0144 0.8704 10.496 1.2288 5.632 3.9424 10.8544 7.7312 15.2064 3.8912 4.2496 8.0384 8.192 12.5952 11.6736 4.3008 3.7888 8.8576 7.2704 13.568 10.4448 2.304 1.536 4.5568 2.9184 6.656 4.608a20.224 20.224 0 0 1 5.4272 5.9904 14.5408 14.5408 0 0 1 1.4848 10.4448m-459.6224-111.4112a20.48 20.48 0 0 1 11.264-1.024 27.5456 27.5456 0 0 1 10.5472 4.4544c6.0416 4.608 11.3152 10.24 15.5136 16.5888 10.2912 14.1312 20.1728 28.5184 29.184 43.52 7.2704 12.1344 13.9264 24.6784 22.3744 36.096 5.4784 7.424 11.6736 14.336 17.2544 21.76 5.7344 7.2704 10.1376 15.5648 12.8512 24.3712a48.8448 48.8448 0 0 1-3.584 35.0208 45.056 45.056 0 0 1-41.3696 24.576 118.528 118.528 0 0 1-38.5024-12.032c-25.4976-10.1376-53.248-13.312-79.5648-21.1968-8.0896-2.4064-15.9744-5.3248-24.1664-7.5264a70.912 70.912 0 0 1-10.752-3.3792 18.4832 18.4832 0 0 1-8.3968-7.0656 16.0256 16.0256 0 0 1-2.1504-8.3968 24.7296 24.7296 0 0 1 1.6896-8.3456c1.9968-5.4784 5.1712-10.3424 7.3216-15.7184 3.2256-8.9088 4.4544-18.432 3.6352-27.8016-0.4096-9.4208-2.0992-18.7904-2.6112-28.16a45.3632 45.3632 0 0 1 0.4096-12.5952 18.8928 18.8928 0 0 1 16.0256-16.1792c3.8912-0.6656 7.7824-0.9728 11.6224-0.7168 3.8912 0.2048 7.8336 0.2048 11.7248 0a27.392 27.392 0 0 0 11.1616-3.1232 26.5216 26.5216 0 0 0 8.0384-7.5776c2.1504-3.072 4.0448-6.1952 5.7856-9.472s3.7376-6.3488 6.0928-9.216a22.1184 22.1184 0 0 1 8.6016-6.8608z" fill="#F2A949" p-id="10619"></path></svg>