<?xml version="1.0" standalone="no"?><!DOCTYPE svg PUBLIC "-//W3C//DTD SVG 1.1//EN" "http://www.w3.org/Graphics/SVG/1.1/DTD/svg11.dtd"><svg t="1753754251137" class="icon" viewBox="0 0 1024 1024" version="1.1" xmlns="http://www.w3.org/2000/svg" p-id="4465" xmlns:xlink="http://www.w3.org/1999/xlink" width="256" height="256"><path d="M512 1024a512.576 512.576 0 0 1-512-512 512.576 512.576 0 0 1 512-512 512.576 512.576 0 0 1 512 512 512.576 512.576 0 0 1-512 512zM252.416 508.096v341.504h75.776v-26.496h385.6v25.6h75.776V507.968zM458.432 160a705.152 705.152 0 0 1-241.408 60.352v161.152A64 64 0 0 1 192 433.728l27.264 69.952a1569.728 1569.728 0 0 0 207.552-61.824c3.264 10.176 6.4 20.928 9.408 31.232v0.64c2.368 8.256 4.8 16.512 7.36 24.768l72.896-27.264a1517.248 1517.248 0 0 0-69.184-193.6l-72.192 20.608c10.304 24.384 19.968 49.664 28.736 75.136-29.568 11.776-67.392 24.384-112.576 37.504V282.112A640.768 640.768 0 0 0 496.576 224l-38.4-64z m127.36 106.752a473.6 473.6 0 0 1-19.84 86.848 259.136 259.136 0 0 1-51.584 83.84l45.696 58.176a336.256 336.256 0 0 0 71.36-108.224 589.248 589.248 0 0 0 27.968-120.64h89.024a671.36 671.36 0 0 1-8.128 121.6c-5.12 22.72-16.768 34.624-34.56 35.328s-36.672-1.152-59.52-2.432h-0.448l-8.512-0.512 22.784 67.008a486.72 486.72 0 0 0 53.76 3.648 85.568 85.568 0 0 0 89.024-58.88 1001.024 1001.024 0 0 0 22.144-240.704H517.312v75.136z m128 484.992h-152.32v-52.224h152.384v52.16z m-228.928 0H328.128v-52.224h156.736v52.16z m228.928-120h-152.32v-52.224h152.384v52.16z m-228.928 0H328.128v-52.224h156.736v52.16z" fill="#935EFF" p-id="4466"></path></svg>