<?xml version="1.0" standalone="no"?><!DOCTYPE svg PUBLIC "-//W3C//DTD SVG 1.1//EN" "http://www.w3.org/Graphics/SVG/1.1/DTD/svg11.dtd"><svg t="1742890246473" class="icon" viewBox="0 0 1024 1024" version="1.1" xmlns="http://www.w3.org/2000/svg" p-id="16075" xmlns:xlink="http://www.w3.org/1999/xlink" width="256" height="256"><path d="M0.084619 503.540519c0 278.071859 225.418306 503.523735 503.540519 503.523735 278.088644 0 503.540519-225.451875 503.54052-503.523735 0-278.138998-225.451875-503.557304-503.54052-503.557304-278.122213 0-503.540519 225.418306-503.540519 503.557304z" fill="#FBB713" p-id="16076"></path><path d="M486.068359 218.184107s471.431419 192.318909 503.406242 418.106478c0 0-65.141359 302.829268-404.729085 364.277996 0 0-154.452662-244.133228-179.176501-719.257278 0 0 19.889851-68.716496 80.499344-63.127196z" fill="#FF3A2F" p-id="16077"></path><path d="M312.800066 263.972725S18.463848 459.463939 56.447588 735.219512c0 0-89.244165-127.781799-43.2877-359.5615 0 0 39.376869-222.514555 257.728822-195.826908 0 0 65.812746 16.48256 41.911356 84.141621z" fill="#142A3B" p-id="16078"></path><path d="M388.8179 109.872541s1.997377-134.361395 201.802255-104.400734c0 0 117.912405 20.477314 229.815893 104.400734 0 0-283.745083-59.938106-349.692106 40.971414 0 0-79.928665 34.962497-81.926042-40.971414z" fill="#0CB04A" p-id="16079"></path><path d="M287.236993 249.470758c26.620509 43.220561 90.100184 52.435353 141.780225 20.594807 51.696827-31.85733 72.006294-92.70181 45.352216-135.922371-26.603724-43.220561-90.083399-52.435353-141.763441-20.594807-51.680042 31.85733-72.006294 92.70181-45.369 135.922371z" fill="#FFFFFF" p-id="16080"></path><path d="M728.405626 52.955678c92.903226 91.34225 150.5754 218.419093 150.5754 359.02439 0 278.071859-225.43509 503.523735-503.540519 503.523735-80.801469 0-157.087857-19.13454-224.780488-52.972463 90.872279 89.361657 215.448204 144.532914 352.965119 144.532914 278.088644 0 503.540519-225.451875 503.54052-503.523735 0-197.320745-113.531602-368.004196-278.760032-450.584841z" fill="#010101" opacity=".25" p-id="16081"></path></svg>