<?xml version="1.0" standalone="no"?><!DOCTYPE svg PUBLIC "-//W3C//DTD SVG 1.1//EN" "http://www.w3.org/Graphics/SVG/1.1/DTD/svg11.dtd"><svg t="1739086259260" class="icon" viewBox="0 0 1024 1024" version="1.1" xmlns="http://www.w3.org/2000/svg" p-id="27901" xmlns:xlink="http://www.w3.org/1999/xlink" width="200" height="200"><path d="M512 0C229.1712 0 0 229.1712 0 512s229.1712 512 512 512 512-229.1712 512-512S794.8288 0 512 0z" fill="#FFE423" p-id="27902"></path><path d="M266.24 450.56v-143.36c0-22.528 18.432-40.96 40.96-40.96h143.36c22.528 0 40.96 18.432 40.96 40.96v143.36c0 22.528-18.432 40.96-40.96 40.96h-143.36c-22.528 0-40.96-18.432-40.96-40.96z m184.32-143.36h-143.36v143.36h143.36zM266.24 716.8v-143.36c0-22.528 18.432-40.96 40.96-40.96h143.36c22.528 0 40.96 18.432 40.96 40.96v143.36c0 22.528-18.432 40.96-40.96 40.96h-143.36c-22.528 0-40.96-18.432-40.96-40.96z m184.32-143.36h-143.36v143.36h143.36zM532.48 450.56v-143.36c0-22.528 18.432-40.96 40.96-40.96h143.36c22.528 0 40.96 18.432 40.96 40.96v143.36c0 22.528-18.432 40.96-40.96 40.96h-143.36c-22.528 0-40.96-18.432-40.96-40.96z m184.32-143.36h-143.36v143.36h143.36z" fill="#000000" p-id="27903"></path><path d="M378.88 348.16c-16.9984 0-30.72 13.7216-30.72 30.72s13.7216 30.72 30.72 30.72 30.72-13.7216 30.72-30.72-13.7216-30.72-30.72-30.72zM378.88 614.4c-16.9984 0-30.72 13.7216-30.72 30.72s13.7216 30.72 30.72 30.72 30.72-13.7216 30.72-30.72-13.7216-30.72-30.72-30.72zM645.12 348.16c-16.9984 0-30.72 13.7216-30.72 30.72s13.7216 30.72 30.72 30.72 30.72-13.7216 30.72-30.72-13.7216-30.72-30.72-30.72zM532.48 645.12h132.3008V532.48H532.48v112.64zM532.48 757.76h56.7296v-61.44H532.48v61.44zM625.4592 757.76H757.76v-61.44h-132.3008v61.44z" fill="#000000" p-id="27904"></path><path d="M701.0304 738.9184H757.76V645.12h-56.7296v93.7984zM701.0304 588.8H757.76V532.48h-56.7296v56.32z" fill="#000000" p-id="27905"></path></svg>