<?xml version="1.0" standalone="no"?><!DOCTYPE svg PUBLIC "-//W3C//DTD SVG 1.1//EN" "http://www.w3.org/Graphics/SVG/1.1/DTD/svg11.dtd"><svg t="1739105264603" class="icon" viewBox="0 0 1024 1024" version="1.1" xmlns="http://www.w3.org/2000/svg" p-id="54033" xmlns:xlink="http://www.w3.org/1999/xlink" width="200" height="200"><path d="M0 0m85.333333 0l853.333334 0q85.333333 0 85.333333 85.333333l0 853.333334q0 85.333333-85.333333 85.333333l-853.333334 0q-85.333333 0-85.333333-85.333333l0-853.333334q0-85.333333 85.333333-85.333333Z" fill="#08A667" p-id="54034"></path><path d="M103.253333 105.173333v478.208h134.656v-47.616H156.501333V152.746667h81.408V105.173333H103.253333z m817.493334 0v478.208h-134.656v-47.616h81.408V152.746667h-81.408V105.173333h134.656zM493.909333 337.493333l-49.152 40.96L362.666667 279.978667 280.576 378.453333l-49.152-40.96L362.666667 180.053333l131.242666 157.482667zM469.333333 485.973333a42.666667 42.666667 0 1 1-85.333333 0 42.666667 42.666667 0 0 1 85.333333 0z m85.333334 42.666667a42.666667 42.666667 0 1 1 0-85.333333 42.666667 42.666667 0 0 1 0 85.333333z m170.666666-42.666667a42.666667 42.666667 0 1 1-85.333333 0 42.666667 42.666667 0 0 1 85.333333 0zM42.666667 938.666667v-256h938.666666v256a42.666667 42.666667 0 0 1-42.666666 42.666666H85.333333a42.666667 42.666667 0 0 1-42.666666-42.666666z m141.824-96l36.608 59.648h60.16l-47.616-65.024c10.752-3.925333 18.602667-10.154667 23.552-18.688 4.949333-8.704 7.424-20.224 7.424-34.56 0-21.162667-5.802667-36.352-17.408-45.568-11.605333-9.216-28.757333-13.824-51.456-13.824H123.562667v177.664H174.506667V842.666667h9.984z m2.304-36.352H174.506667v-42.752h12.288c5.12 0 9.472 0.341333 13.056 1.024 3.584 0.512 6.4 1.536 8.448 3.072a11.818667 11.818667 0 0 1 4.608 6.4c1.024 2.56 1.536 5.888 1.536 9.984 0 8.362667-2.048 14.165333-6.144 17.408-3.925333 3.242667-11.093333 4.864-21.504 4.864z m231.253333 32.256a169.386667 169.386667 0 0 0 0.469333-14.336 119.893333 119.893333 0 0 0-2.816-27.648 42.282667 42.282667 0 0 0-9.984-19.456 42.709333 42.709333 0 0 0-19.2-11.776 101.888 101.888 0 0 0-30.464-3.84c-11.434667 0-21.674667 1.109333-30.72 3.328a52.096 52.096 0 0 0-22.784 11.264 49.664 49.664 0 0 0-14.08 22.016c-3.242667 9.216-4.864 20.906667-4.864 35.072 0 14.165333 1.621333 25.941333 4.864 35.328 3.242667 9.216 7.850667 16.554667 13.824 22.016 6.144 5.290667 13.482667 9.045333 22.016 11.264 8.704 2.048 18.517333 3.072 29.44 3.072 13.653333 0 25.6-1.109333 35.84-3.328 10.410667-2.218667 17.749333-4.778667 22.016-7.68v-35.84a46.293333 46.293333 0 0 1-8.448 3.584 112.469333 112.469333 0 0 1-25.6 5.632 132.138667 132.138667 0 0 1-14.08 0.768c-8.874667 0-16.042667-1.28-21.504-3.84a18.645333 18.645333 0 0 1-9.984-13.056l84.992-5.12c0.341333-1.024 0.682667-3.498667 1.024-7.424z m-46.378667-36.608a20.053333 20.053333 0 0 1 3.84 12.8l-43.776 3.328c0.512-8.533333 2.645333-14.165333 6.4-16.896 3.925333-2.730667 9.984-4.096 18.176-4.096 7.68 0 12.8 1.621333 15.36 4.864z m206.08-37.888h-48.170666v12.032a23.338667 23.338667 0 0 0-13.056-11.008c-5.802667-2.389333-14.592-3.584-26.368-3.584-10.922667 0-19.968 1.877333-27.136 5.632a45.781333 45.781333 0 0 0-16.896 15.36 66.005333 66.005333 0 0 0-8.704 22.528c-1.536 8.533333-2.304 17.493333-2.304 26.88 0 10.581333 0.768 20.224 2.304 28.928 1.706667 8.533333 4.608 15.872 8.704 22.016 4.266667 6.144 9.898667 10.922667 16.896 14.336 7.168 3.413333 16.213333 5.12 27.136 5.12 11.605333 0 20.394667-1.365333 26.368-4.096a28.544 28.544 0 0 0 13.056-11.776v3.584a34.602667 34.602667 0 0 1-2.304 13.568 16.810667 16.810667 0 0 1-6.912 8.448 31.018667 31.018667 0 0 1-12.544 4.096c-5.12 0.853333-11.349333 1.28-18.688 1.28-5.973333 0-12.544-0.512-19.712-1.536a153.770667 153.770667 0 0 1-18.944-3.328v37.632c3.242667 0.512 6.741333 0.938667 10.496 1.28 3.754667 0.512 7.509333 0.853333 11.264 1.024a279.552 279.552 0 0 0 22.016 1.024c16.384 0 29.952-1.536 40.704-4.608 10.752-2.901333 19.285333-7.082667 25.6-12.544 6.314667-5.461333 10.752-12.032 13.312-19.712 2.56-7.68 3.84-16.298667 3.84-25.856v-126.72z m-70.698666 104.704a32.384 32.384 0 0 0 13.568-2.304 15.957333 15.957333 0 0 0 7.424-7.168 29.866667 29.866667 0 0 0 3.072-11.776 142.592 142.592 0 0 0 0-30.464 27.306667 27.306667 0 0 0-3.072-11.264 14.72 14.72 0 0 0-7.424-6.912 29.525333 29.525333 0 0 0-13.568-2.56 21.333333 21.333333 0 0 0-12.032 3.072 20.053333 20.053333 0 0 0-6.912 7.68 36.693333 36.693333 0 0 0-3.072 11.52 129.792 129.792 0 0 0 0 27.648 39.68 39.68 0 0 0 3.072 11.776 22.186667 22.186667 0 0 0 6.912 7.936 22.826667 22.826667 0 0 0 12.032 2.816z m220.501333 33.536v-43.776h-66.56v-25.088h59.648v-42.24h-59.648v-22.528h65.024v-44.032h-115.968v177.664h117.504z m60.288-70.912l-48.128 70.912h58.368l23.296-40.448h1.536l22.528 40.448h58.624l-47.616-70.912 45.056-67.328h-57.344l-21.248 37.632h-1.536l-20.736-37.632h-57.856l45.056 67.328z" fill="#FFFFFF" p-id="54035"></path></svg>