<?xml version="1.0" standalone="no"?><!DOCTYPE svg PUBLIC "-//W3C//DTD SVG 1.1//EN" "http://www.w3.org/Graphics/SVG/1.1/DTD/svg11.dtd"><svg t="1739240949924" class="icon" viewBox="0 0 1024 1024" version="1.1" xmlns="http://www.w3.org/2000/svg" p-id="26495" xmlns:xlink="http://www.w3.org/1999/xlink" width="88" height="88"><path d="M786.285714 548.571429a128 128 0 0 1 128 128 36.571429 36.571429 0 0 1-73.051428 2.742857L841.142857 676.571429a54.857143 54.857143 0 0 0-51.638857-54.765715L786.285714 621.714286h-18.285714a54.857143 54.857143 0 0 0-54.765714 51.638857L713.142857 676.571429v73.142857h201.142857a73.142857 73.142857 0 0 1 73.142857 73.142857v128a73.142857 73.142857 0 0 1-73.142857 73.142857H640a73.142857 73.142857 0 0 1-73.142857-73.142857v-128a73.142857 73.142857 0 0 1 73.142857-73.142857v-73.142857a128 128 0 0 1 128-128h18.285714z m18.285715-548.571429a109.714286 109.714286 0 0 1 109.714285 109.714286v329.142857a36.571429 36.571429 0 0 1-73.051428 2.742857L841.142857 438.857143V128a54.857143 54.857143 0 0 0-54.857143-54.857143H164.571429a54.857143 54.857143 0 0 0-54.765715 51.638857L109.714286 128v731.428571a54.857143 54.857143 0 0 0 51.638857 54.765715L164.571429 914.285714h256a36.571429 36.571429 0 0 1 2.742857 73.051429L420.571429 987.428571H146.285714a109.714286 109.714286 0 0 1-109.714285-109.714285V109.714286a109.714286 109.714286 0 0 1 109.714285-109.714286h658.285715z m73.142857 822.857143H676.571429a36.571429 36.571429 0 0 0-36.48 33.828571L640 859.428571v54.857143a36.571429 36.571429 0 0 0 33.828571 36.48L676.571429 950.857143h201.142857a36.571429 36.571429 0 0 0 36.48-33.828572L914.285714 914.285714v-54.857143a36.571429 36.571429 0 0 0-36.571428-36.571428zM438.857143 640a36.571429 36.571429 0 0 1 0 73.142857H256a36.571429 36.571429 0 0 1 0-73.142857h182.857143z m32.512-385.901714c25.106286 0 44.836571 5.083429 58.88 15.542857 14.957714 11.062857 23.643429 28.416 25.728 51.748571h-34.688c-2.980571-13.165714-8.667429-22.747429-16.438857-28.416-7.771429-5.979429-19.748571-8.667429-35.291429-8.667428-13.44 0-23.606857 1.792-30.793143 5.668571-8.96 4.48-13.165714 11.958857-13.165714 22.125714 0 8.96 4.790857 16.457143 14.957714 21.833143 4.498286 2.377143 16.749714 6.875429 36.48 13.165715 29.001143 8.96 47.542857 16.128 55.917715 20.918857 18.541714 11.062857 27.794286 26.313143 27.794285 46.043428 0 19.145143-7.460571 34.377143-22.418285 45.458286-14.939429 10.752-36.169143 16.438857-63.378286 16.438857-26.331429 0-46.939429-5.083429-61.604572-15.250286-17.92-12.562286-27.794286-32.292571-29.293714-59.501714H418.742857c2.377143 16.146286 8.064 27.794286 17.334857 34.688 8.374857 5.979429 21.229714 9.270857 38.875429 9.270857 15.542857 0 28.105143-2.706286 37.065143-7.771428 8.978286-5.394286 13.769143-12.251429 13.769143-21.229715 0-11.373714-6.875429-20.333714-20.041143-26.916571-4.187429-2.102857-17.938286-6.875429-41.563429-14.061714-26.313143-8.356571-42.752-14.336-49.024-17.92-16.457143-9.874286-24.521143-24.228571-24.521143-43.062857s7.771429-33.792 23.917715-44.562286c14.939429-10.459429 33.792-15.542857 56.813714-15.542857z m-188.672 4.187428c21.814857 0 39.168 4.790857 51.730286 14.646857 13.165714 10.770286 20.022857 26.331429 20.022857 46.646858 0 11.062857-2.980571 20.937143-8.96 29.604571-6.582857 9.563429-15.853714 15.835429-27.209143 18.834286v0.603428c18.523429 4.187429 29.001143 16.438857 31.396571 37.376l3.584 34.377143c1.188571 13.165714 5.668571 23.625143 12.854857 31.396572h-37.979428c-5.083429-6.582857-8.064-15.853714-9.270857-27.794286l-2.688-26.331429c-1.188571-11.648-4.772571-20.022857-10.752-25.106285-6.290286-5.394286-15.542857-7.771429-27.52-7.771429h-55.314286V471.771429H187.611429V258.285714z m408.429714 0L772.754286 471.771429h-37.376l-19.437715-53.522286h-89.398857L607.104 471.771429h-37.376l81.627429-213.485715h39.771428z m-19.126857 37.668572h-1.206857l-33.792 93.586285h68.48l-33.481143-93.586285z m-394.093714-7.771429h-55.314286v66.669714h55.314286c13.750857 0 24.228571-2.980571 31.396571-8.667428 6.582857-5.979429 9.874286-14.354286 9.874286-25.106286 0-11.666286-3.291429-20.041143-9.874286-25.124571-6.582857-5.376-17.042286-7.771429-31.396571-7.771429z" fill="#d81e06" p-id="26496"></path></svg>