<?xml version="1.0" standalone="no"?><!DOCTYPE svg PUBLIC "-//W3C//DTD SVG 1.1//EN" "http://www.w3.org/Graphics/SVG/1.1/DTD/svg11.dtd"><svg t="1739411826811" class="icon" viewBox="0 0 1024 1024" version="1.1" xmlns="http://www.w3.org/2000/svg" p-id="11397" xmlns:xlink="http://www.w3.org/1999/xlink" width="88" height="88"><path d="M864 112c26.51 0 48 21.49 48 48v364c-35.346 0-64-28.654-64-64V176H176v672h284c34.993 0 63.426 28.084 63.991 62.942L524 912H160c-26.51 0-48-21.49-48-48V160c0-26.51 21.49-48 48-48h704z m20 668.492c15.464 0 28 12.536 28 28s-12.536 28-28 28H666.818c24.32 15.735 31.278 48.206 15.543 72.526L680.43 912l-123.642-80c-23.426-15.158-12.691-51.508 15.211-51.508h312zM775.518 604.983l123.642 80c23.426 15.158 12.692 51.509-15.21 51.509h-312c-15.465 0-28-12.536-28-28s12.535-28 28-28H789.13c-24.32-15.736-31.278-48.207-15.542-72.526l1.93-2.983zM522.565 263c27.84 0 47.04 8.96 63.68 25.6 22.08 22.08 23.034 50.931 23.045 82.068v2.034c-0.001 2.037-0.005 4.084-0.005 6.138v1.707l0.002 1.704 0.003 2.55v2.54c-0.02 25.368-0.74 49.387-13.125 69.259l25.44 26.92-1.33 1.33c-0.24 0.24-0.483 0.477-0.73 0.71-14.983 14.188-38.631 13.544-52.82-1.44-12.16 7.04-26.56 10.56-44.16 10.56-27.84 0-47.04-8.96-63.68-25.6-21.84-21.84-23.01-50.305-23.044-81.054v-3.048c0-2.037 0.004-4.084 0.004-6.138v-1.027c0-1.71-0.003-3.413-0.005-5.11v-3.05c0.035-30.748 1.205-59.213 23.045-81.053 16.64-16.64 35.84-25.6 63.68-25.6z m-190.485 0c32.64 0 57.28 7.68 76.8 27.2l-0.235 0.571c-7.893 18.762-27.834 29.51-47.89 25.726-16.028-3.025-26.12-4.537-30.275-4.537-19.52 0-27.52 11.2-27.52 21.12 0 2.88 0.96 7.04 4.48 10.56 2.88 2.88 7.68 5.76 15.68 6.72l27.52 3.84c20.48 2.88 35.2 9.28 44.8 18.88 12.16 11.84 16.96 28.8 16.96 49.92 0 46.4-40 71.68-88 71.68-34.88 0-63.36-6.4-86.4-30.08l13.049-12.947a47.993 47.993 0 0 1 48.329-11.676c10.042 3.189 18.49 4.783 25.342 4.783 22.08 0 32.64-7.36 32.64-20.48 0-5.44-1.28-9.92-4.48-13.44-2.88-2.88-7.68-5.12-15.04-6.08l-27.52-3.84c-20.16-2.88-35.52-9.6-45.76-20.16-10.56-10.88-15.68-26.24-15.68-45.76 0-41.6 31.36-72 83.2-72zM654 260.92l0.926 0.008c30.5 0.494 55.074 25.373 55.074 55.992v125.92h54.76c27.57 0 49.92 22.35 49.92 49.92H654V260.92z m-131.435 52c-10.24 0-18.24 4.48-22.4 9.92-5.12 6.72-8.32 14.4-8.32 56s3.2 48.96 8.32 55.68c4.16 5.44 12.16 10.24 22.4 10.24 1.6 0 2.88 0 4.48-0.32l-19.264-18.517 13.105-13.105c8.55-8.55 22.363-8.719 31.12-0.378 0.64-7.68 1.28-18.24 1.28-33.6 0-41.6-3.2-49.28-8.32-56-4.16-5.44-12.16-9.92-22.4-9.92z" p-id="11398" fill="#007aff"></path></svg>