<?xml version="1.0" standalone="no"?><!DOCTYPE svg PUBLIC "-//W3C//DTD SVG 1.1//EN" "http://www.w3.org/Graphics/SVG/1.1/DTD/svg11.dtd"><svg t="1739179614029" class="icon" viewBox="0 0 1024 1024" version="1.1" xmlns="http://www.w3.org/2000/svg" p-id="14976" xmlns:xlink="http://www.w3.org/1999/xlink" width="88" height="88"><path d="M842.8 128.4L803.7 154l18.7 28.6H701.9v46.8h207zM840.8 338.9l-39.1 25.6 18.7 28.6H699.9v46.8h207zM801.7 551.7l18.7 28.6H699.9V627h207l-66.1-101zM115.1 842.9h709l-16.7 30.2 41 22.5 54.8-99.4H115.1zM413.1 376.5c-15.2 0-26.5 4.8-34.6 14.7-8.1 9.9-12.1 23.3-12.1 41 0 17.2 4.1 30.9 12.1 40.7 8.2 9.8 19.5 14.5 34.6 14.5 5.8 0 11-0.7 15.8-2.1-5.6-6.7-11.4-13.1-17.3-19.4l-5.9-6.2 27.2-26.8 6.2 6.5c5.6 5.9 11.2 12.1 16.8 18.5 2.5-7.4 3.8-16 3.8-25.8 0-17.7-4.1-31.7-12.3-41.7-7.8-9.3-19-13.9-34.3-13.9z" fill="#613EDA" p-id="14977"></path><path d="M676.5 141.2h-538V726h538V141.2zM303.2 513.1c-13.3 9.5-31.5 14.3-54.3 14.3-21.9 0-39.6-4.6-52.7-13.7-16-11.4-24.8-29.2-26.4-52.9l-0.6-9.4h42.2l1.1 7.5c1.5 10.8 5.1 18.4 10.6 22.5 5.2 4 13.9 6 25.8 6 10.7 0 19.5-1.8 25.9-5.4 5.9-3.3 6.7-6.9 6.7-9.9 0-4-1.3-9.1-11.1-14.2-1.5-0.7-7.7-3.3-31.8-10.7-22.5-7.2-34.4-11.5-40-14.5-15.7-9.4-23.8-23.6-23.8-41.2 0-17.7 7.5-31.8 22.3-41.9 13.1-8.9 29.7-13.4 49.1-13.4 21.8 0 38.4 4.6 50.9 14.2 13.6 10.1 21.5 25.7 23.3 46.4l0.9 9.6h-41.9l-1.5-6.9c-1.9-8.8-5.2-14.9-9.6-18.1-5.1-3.8-12.7-5.6-23.4-5.6-11.7 0-17.9 2.1-21 3.8-4.5 2.3-6.3 5.4-6.3 10.6 0 2.9 0.9 6.4 7.7 10 1.5 0.8 7 3.6 27.4 9.7 24.7 7.7 38.8 13 45.8 17.3 17.1 10.4 25.7 25 25.7 43.5 0.1 17.8-7 32.1-21 42.4z m171.2 33.5l-5.6-8.1c-4.7-6.8-9.3-13.3-13.8-19.6-12.2 5.8-26.2 8.7-41.8 8.7-27.9 0-50.4-9.3-66.7-27.7-15.3-17.3-23-40-23-67.5 0-27.7 7.7-50.5 23-67.8 16-18.5 38.4-28 66.7-28 27.9 0 50.3 9.3 66.6 27.7 15.4 17.2 23.3 40.1 23.3 68 0 24.2-6.1 44.8-18.1 61.4 4.9 6.6 9.9 13.3 14.7 20.4l4.4 6.4-29.7 26.1z m171.5-22.4H511.2V339.7H554v145.2h91.9v39.3z" fill="#613EDA" p-id="14978"></path></svg>