<?xml version="1.0" standalone="no"?><!DOCTYPE svg PUBLIC "-//W3C//DTD SVG 1.1//EN" "http://www.w3.org/Graphics/SVG/1.1/DTD/svg11.dtd"><svg t="1739542668821" class="icon" viewBox="0 0 1024 1024" version="1.1" xmlns="http://www.w3.org/2000/svg" p-id="7062" xmlns:xlink="http://www.w3.org/1999/xlink" width="88" height="88"><path d="M520.06 402.12c-27.25 0-48.4 9-63.46 27.61-14.35 17.55-21.53 41.25-21.53 71.35q0 44.63 21.53 71c15.06 17.95 36.21 27.25 63.46 27.25 17.94 0 33.35-4 45.9-11.45a694.354 694.354 0 0 0-38.36-44.1l22.59-22.25c12.91 13.59 25.82 28.3 38.72 43.4 10.76-16.5 16.14-37.65 16.14-63.85 0-30.85-7.53-54.85-21.88-72.46-14.69-17.89-35.85-26.5-63.11-26.5z" fill="#FF5C5C" p-id="7063"></path><path d="M866.46 0H157.54C70.89 0 0 70.89 0 157.54v708.92C0 953.11 70.89 1024 157.54 1024h708.92c86.65 0 157.54-70.89 157.54-157.54V157.54C1024 70.89 953.11 0 866.46 0zM343.77 614.38q-26.88 19.43-75.29 19.4c-31.21 0-55.59-6.45-73.17-18.66-21.15-15.09-32.62-38.74-34.77-71h38.72c2.86 20.06 10 34.76 21.51 43.36 10.4 7.9 26.18 11.85 47.71 11.85 19.36 0 34.77-3.6 46.25-10.05s17.21-15.4 17.21-26.9c0-14.3-8.25-25.45-24.39-33.7-5.73-2.85-22.59-8.6-50.91-17.2-31.57-10.05-50.93-16.86-58.82-21.15-19.72-11.85-29.4-29.05-29.4-51.3 0-22.6 9.33-40.15 28.33-53q26.88-18.3 67.77-18.3c29.77 0 53.08 6.1 69.93 19 17.93 13.3 28 33.7 30.47 61.7H326.2c-3.59-16.5-10-28.7-20.08-35.85-10.05-7.55-24.38-11.15-43.74-11.15q-25.29 0-38.73 7.55c-11.13 5.75-16.5 15.05-16.5 27.95 0 11.5 6.1 20.45 19 27.24 5.74 3.26 20.45 8.61 44.47 15.81 34.43 10.75 57 19 67.05 25.1 21.88 13.25 33 31.55 33 55.2 0 22.9-8.97 40.84-26.9 54.1z m297.85 19.74l-25.1 22.21c-9.67-14-19-27.25-28.32-39.8-19 11.5-41.6 17.25-68.14 17.25-39.08 0-69.92-12.95-92.15-38-21.52-24.4-31.91-55.95-31.91-94.7 0-39.1 10.39-70.65 31.91-95 22.23-25.85 53.07-38.4 92.15-38.4 38.74 0 69.58 12.55 92.17 38 21.51 24.05 32.27 55.94 32.27 95.4 0 38.35-10.4 69.54-31.2 93.95 9.32 12.55 19.01 25.45 28.32 39.09z m221.84-5.39H683.8v-256h38.72v222.65h140.94z" fill="#FF5C5C" p-id="7064"></path></svg>