<?xml version="1.0" standalone="no"?><!DOCTYPE svg PUBLIC "-//W3C//DTD SVG 1.1//EN" "http://www.w3.org/Graphics/SVG/1.1/DTD/svg11.dtd"><svg t="1739800779767" class="icon" viewBox="0 0 1024 1024" version="1.1" xmlns="http://www.w3.org/2000/svg" p-id="6171" xmlns:xlink="http://www.w3.org/1999/xlink" width="48" height="48"><path d="M868.352 960H155.648v-896H686.08l181.76 174.08v721.92z m-644.608-71.68h581.632v-609.28h-143.36V141.312h-440.32l2.048 747.008z" fill="#8998AE" p-id="6172"></path><path d="M64 380.416h896v440.32h-896z" fill="#4BAD77" p-id="6173"></path><path d="M721.408 745.984V465.408h38.4V711.68h126.976v34.304h-165.376zM413.696 603.136c0-40.448 10.24-74.752 30.72-101.888 18.944-26.624 49.664-41.984 82.432-40.96 38.912 0 68.608 12.8 89.6 37.888s31.232 60.416 31.232 104.96c0 37.376-7.168 68.608-20.992 93.184 8.192 5.632 30.208 22.016 30.208 22.016l-22.016 29.696-31.232-23.552c-19.456 17.408-45.568 26.112-77.312 26.112-35.328 0-62.976-13.824-82.944-41.472-19.456-27.648-29.696-62.976-29.696-105.984z m40.448 0c0 32.256 6.144 58.88 18.944 80.896s30.72 32.256 53.76 32.256c7.168 0 14.848-1.024 22.016-2.048 18.432-4.608 24.064-10.752 24.064-10.752l-29.696-20.48 25.088-30.72s18.432 14.336 26.624 19.456c8.704-21.504 12.8-45.056 12.288-68.096 0-72.192-26.624-108.544-80.384-108.544-22.016-1.024-43.008 10.24-54.272 29.184-12.288 18.944-18.432 45.568-18.432 78.848zM167.424 713.216l26.112-30.72c19.968 20.48 47.104 32.768 75.776 33.792 34.304 0 53.76-16.384 53.76-39.936 0-25.6-19.456-33.792-45.568-45.568l-39.424-16.896c-27.136-11.776-57.856-33.28-57.856-74.24 0-44.544 39.424-78.336 93.184-78.336 32.256 0 63.488 12.8 86.016 35.84l-23.552 28.672c-16.896-16.384-38.912-25.6-62.464-25.6-29.184 0-47.616 13.824-47.616 36.864 0 24.576 23.04 33.792 46.08 43.008l38.912 16.384c33.28 14.336 57.856 35.328 57.856 76.8 0 45.568-37.888 82.432-99.84 82.432-37.888-1.024-74.752-15.872-101.376-42.496z" fill="#FFFFFF" p-id="6174"></path><path d="M747.52 459.776c-12.288 0-24.064-5.12-32.768-13.824l-177.664-177.664c-17.92-17.92-17.92-47.104-0.512-65.024h0.512l177.664-178.176c17.92-17.92 47.104-17.92 65.024 0h0.512l177.664 177.664c17.92 17.92 17.92 47.104 0.512 65.024h-0.512l-177.664 178.176c-8.704 8.704-20.48 13.312-32.768 13.824z" fill="#9C7C11" p-id="6175"></path><path d="M909.312 206.848h-132.608V74.24h-57.856v132.608h-132.608v57.856h132.608v132.608h57.856V264.704h132.608z" fill="#FFF7D4" p-id="6176"></path></svg>