<?xml version="1.0" standalone="no"?><!DOCTYPE svg PUBLIC "-//W3C//DTD SVG 1.1//EN" "http://www.w3.org/Graphics/SVG/1.1/DTD/svg11.dtd"><svg t="1739599988253" class="icon" viewBox="0 0 1024 1024" version="1.1" xmlns="http://www.w3.org/2000/svg" p-id="17617" xmlns:xlink="http://www.w3.org/1999/xlink" width="48" height="48"><path d="M0 0m245.76 0l532.48 0q245.76 0 245.76 245.76l0 532.48q0 245.76-245.76 245.76l-532.48 0q-245.76 0-245.76-245.76l0-532.48q0-245.76 245.76-245.76Z" fill="#2975FF" p-id="17618"></path><path d="M788.48 733.184V788.48H622.592V512h55.296v221.184H788.48zM318.464 622.592a27.648 27.648 0 1 1 27.648-27.648h55.296a82.944 82.944 0 1 0-82.944 82.944 27.648 27.648 0 1 1-27.648 27.648H235.52a82.944 82.944 0 1 0 82.944-82.944zM650.24 235.52L788.48 373.76v110.592h-55.296v-87.64416L627.29216 290.816H290.816v193.536H235.52V235.52h414.72zM512 512a82.944 82.944 0 0 0-82.944 82.944v110.592A82.944 82.944 0 0 0 512 788.48h82.944V594.944A82.944 82.944 0 0 0 512 512z m-27.648 193.536V594.944a27.648 27.648 0 0 1 55.296 0v110.592a27.648 27.648 0 0 1-55.296 0z" fill="#FFFFFF" p-id="17619"></path></svg>