<?xml version="1.0" standalone="no"?><!DOCTYPE svg PUBLIC "-//W3C//DTD SVG 1.1//EN" "http://www.w3.org/Graphics/SVG/1.1/DTD/svg11.dtd"><svg t="1739086073148" class="icon" viewBox="0 0 1024 1024" version="1.1" xmlns="http://www.w3.org/2000/svg" p-id="15951" xmlns:xlink="http://www.w3.org/1999/xlink" width="200" height="200"><path d="M512 972.8C276.48 972.8 85.333333 781.653333 85.333333 546.133333S276.48 119.466667 512 119.466667s426.666667 191.146667 426.666667 426.666666-191.146667 426.666667-426.666667 426.666667z m0-785.066667C314.026667 187.733333 153.6 348.16 153.6 546.133333s160.426667 358.4 358.4 358.4 358.4-160.426667 358.4-358.4-160.426667-358.4-358.4-358.4z" fill="#3793DF" p-id="15952"></path><path d="M512 580.266667c-8.533333 0-17.066667-3.413333-23.893333-10.24L310.613333 392.533333c-13.653333-13.653333-13.653333-34.133333 0-47.786666 13.653333-13.653333 34.133333-13.653333 47.786667 0l153.6 153.6 182.613333-182.613334c13.653333-13.653333 34.133333-13.653333 47.786667 0 13.653333 13.653333 13.653333 34.133333 0 47.786667L535.893333 570.026667c-6.826667 6.826667-15.36 10.24-23.893333 10.24z" fill="#EB4AF4" p-id="15953"></path></svg>