<?xml version="1.0" standalone="no"?><!DOCTYPE svg PUBLIC "-//W3C//DTD SVG 1.1//EN" "http://www.w3.org/Graphics/SVG/1.1/DTD/svg11.dtd"><svg t="1739086198434" class="icon" viewBox="0 0 1024 1024" version="1.1" xmlns="http://www.w3.org/2000/svg" p-id="21807" xmlns:xlink="http://www.w3.org/1999/xlink" width="200" height="200"><path d="M665.6 51.2l204.8 204.8v665.6a51.2 51.2 0 0 1-51.2 51.2H204.8a51.2 51.2 0 0 1-51.2-51.2V102.4a51.2 51.2 0 0 1 51.2-51.2h460.8z" fill="#296EF2" p-id="21808"></path><path d="M665.6 51.2l204.8 204.8h-153.6a51.2 51.2 0 0 1-51.2-51.2V51.2z" fill="#75A4FE" p-id="21809"></path><path d="M671.7888 512a18.9888 18.9888 0 0 1 18.9888 18.9888v138.496h72.768a17.2608 17.2608 0 0 1 0 34.5152H678.4a25.6 25.6 0 0 1-25.6-25.6V530.9888A18.9888 18.9888 0 0 1 671.7888 512zM485.5872 545.344v51.584h43.584c8.6592 0 15.1488-1.0432 19.4816-3.1232 7.6608-3.648 11.488-10.8608 11.488-21.6256 0-11.6352-3.7056-19.456-11.1168-23.4496-4.16-2.2528-10.4064-3.3856-18.7264-3.3856h-44.7104zM538.2848 512c12.9088 0.256 22.8352 1.9136 29.7856 4.9472a46.6816 46.6816 0 0 1 17.6704 13.4208 59.9488 59.9488 0 0 1 9.4912 16.1472c2.3296 5.9072 3.4944 12.64 3.4944 20.192 0 9.12-2.2016 18.0864-6.6176 26.8992-4.416 8.8128-11.6992 15.04-21.856 18.688 8.4928 3.5648 14.5088 8.6208 18.048 15.1808 3.5392 6.5536 5.312 16.5632 5.312 30.0224v12.896c0 8.768 0.3264 14.72 0.992 17.8432 0.9984 4.9536 3.328 8.6016 6.9952 10.944a4.8192 4.8192 0 0 1-4.8192 4.8192h-37.5168c-1.1648-4.256-1.9968-7.68-2.496-10.2912a98.4768 98.4768 0 0 1-1.6256-16.544l-0.2496-17.8432c-0.1664-12.2432-2.304-20.4096-6.4256-24.4864-4.1216-4.0832-11.84-6.1248-23.168-6.1248h-39.712v56.4928a18.7968 18.7968 0 0 1-37.5872 0V537.6a25.6 25.6 0 0 1 25.6-25.6h64.6848zM269.0432 512a19.4432 19.4432 0 0 1 19.4368 19.4432v95.6032c0 12.864 1.4912 22.2656 4.4736 28.192 4.6336 10.496 14.7392 15.744 30.3104 15.744 15.488 0 25.5488-5.248 30.1824-15.744 2.9824-5.9264 4.4736-15.3216 4.4736-28.192V531.4432a19.4432 19.4432 0 1 1 38.88 0v95.6032c0 19.8976-3.0208 35.392-9.0688 46.4768-11.264 20.32-32.7488 30.4768-64.4672 30.4768s-53.248-10.1568-64.5952-30.4768c-6.048-11.0912-9.0688-26.5792-9.0688-46.4768V531.4432A19.4432 19.4432 0 0 1 269.0432 512z" fill="#FFFFFF" p-id="21810"></path></svg>