<?xml version="1.0" standalone="no"?><!DOCTYPE svg PUBLIC "-//W3C//DTD SVG 1.1//EN" "http://www.w3.org/Graphics/SVG/1.1/DTD/svg11.dtd"><svg t="1744105522796" class="icon" viewBox="0 0 1024 1024" version="1.1" xmlns="http://www.w3.org/2000/svg" p-id="6713" xmlns:xlink="http://www.w3.org/1999/xlink" width="256" height="256"><path d="M654.381105 471.527619c0 25.161143 13.750857 48.37181 36.083809 60.952381a73.825524 73.825524 0 0 0 72.167619 0c22.381714-12.580571 36.08381-35.791238 36.08381-60.952381s-13.702095-48.37181-36.08381-60.952381a73.825524 73.825524 0 0 0-72.167619 0c-22.332952 12.580571-36.08381 35.791238-36.083809 60.952381zM306.026057 272.725333c0 43.398095 23.747048 83.431619 62.268953 105.130667 38.521905 21.699048 86.016 21.699048 124.537904 0a120.880762 120.880762 0 0 0 62.268953-105.130667c0-43.398095-23.698286-83.480381-62.268953-105.179428a127.317333 127.317333 0 0 0-124.537904 0 120.880762 120.880762 0 0 0-62.268953 105.179428z" fill="#FF5A2C" p-id="6714"></path><path d="M845.674057 131.949714C782.52739 65.145905 701.338819 1.755429 497.416533 0 417.934629 0 297.005105 17.554286 201.38301 114.346667 143.600152 172.422095 102.103771 248.100571 114.733105 369.468952c1.80419 26.428952 41.496381 56.32 14.433524 107.324953 0 0-57.734095 100.303238-55.929905 116.150857 0 0-1.80419 29.891048 46.908952 31.695238 0 0 12.678095 1.706667 9.020953 28.135619v36.912762s1.80419 10.581333 23.454476 17.603048c0 0 3.608381 3.510857-1.804191 10.581333 0 0-10.825143 12.288 7.216762 38.66819 7.216762 8.777143 18.041905 21.113905 10.873905 45.787429 0 0-9.069714 47.494095 10.825143 58.026667 0 0 21.650286 24.624762 108.251428 14.09219 30.72-3.510857 86.649905-17.554286 120.929524 22.918095 0 0 57.782857 91.428571 64.999619 126.634667 0 0 171.446857-124.928 339.285334-161.889524 0 0-54.125714-145.993143 28.867047-262.144 0 0 104.69181-133.705143 106.496-207.62819 0 5.315048 27.062857-117.857524-102.887619-260.388572zM551.542248 417.01181a39.497143 39.497143 0 0 1-14.433524 8.777142c-5.36381 3.510857-12.629333 7.021714-18.041905 10.532572v38.716952l-16.237714 5.315048c-3.608381 1.755429-7.216762 1.755429-9.020953 3.510857-7.216762-10.581333-16.237714-19.358476-23.454476-29.93981-9.020952 1.755429-16.237714 3.510857-25.307428 3.510858-5.36381 10.581333-10.825143 22.918095-16.237715 35.206095 0 0 0 1.755429-1.80419 1.755428-9.020952 0-18.041905-1.755429-27.062857-1.755428-3.608381-12.288-7.216762-26.38019-10.825143-38.716953 0-1.755429-1.80419-1.755429-3.608381-1.755428-9.020952-1.755429-16.237714-5.266286-23.454476-7.021714-10.825143 8.777143-21.650286 17.554286-30.72 26.38019a165.595429 165.595429 0 0 1-23.405715-14.09219c1.80419-14.043429 5.36381-26.331429 7.216762-40.472381a102.15619 102.15619 0 0 1-19.894857-19.309715c-1.80419-1.755429-3.608381-3.559619-5.363809-7.070476-12.678095 3.510857-25.307429 5.315048-39.740953 8.777143h-1.80419c-5.412571-7.021714-9.020952-15.798857-14.433524-22.820571l27.062857-31.695239c-3.608381-7.021714-5.36381-15.847619-9.020952-24.624761-12.629333-3.510857-27.062857-5.266286-39.692191-7.021715-1.80419-8.777143-1.80419-17.603048-3.608381-26.428952 12.629333-5.266286 23.454476-12.288 36.08381-17.554286 0-10.581333 0-19.358476 1.80419-28.184381-10.825143-7.021714-19.846095-14.043429-30.72-21.113905 0 0-3.559619-1.755429-1.755428-3.510857 1.80419-7.021714 3.608381-14.09219 7.216762-21.113904 0-1.755429 0-1.755429 1.80419-3.510858 12.629333 0 25.258667 0 37.888-1.755428 1.80419 0 3.608381 0 3.608381-1.755429 3.608381-7.070476 7.216762-12.336762 10.825143-19.358476a13.165714 13.165714 0 0 0 3.608381-7.021714c-5.36381-12.336762-12.629333-22.918095-18.041905-35.206095 5.412571-7.021714 12.678095-12.336762 18.041905-19.358477l37.936762 15.847619a39.497143 39.497143 0 0 1 14.433524-8.777142c5.36381-3.559619 12.629333-7.070476 18.041904-10.581334v-38.716952l16.237715-5.266286c3.608381-1.755429 7.216762-1.755429 9.020952-3.510857 3.608381 12.288 12.629333 21.113905 19.846095 31.695238 9.020952 0 16.237714-1.80419 25.258667-1.80419v-1.755429c5.412571-12.336762 10.825143-22.918095 16.237714-35.206095 9.020952 0 18.041905 1.755429 27.111619 1.755428 3.608381 12.336762 7.216762 24.673524 9.020953 36.961524 9.020952 1.755429 16.237714 3.510857 25.258666 7.021714 1.80419 0 3.608381 1.80419 5.36381 0 10.873905-5.266286 19.894857-14.043429 28.915809-21.113904 7.216762 5.315048 16.237714 8.777143 23.454477 14.140952-1.80419 12.288-5.36381 24.576-7.216762 36.912762 0 1.755429 3.608381 3.510857 5.412571 5.266286 5.412571 5.266286 10.825143 10.581333 16.237714 14.09219l37.936762-10.581333c1.80419 3.510857 3.608381 5.315048 5.36381 8.777143 3.657143 3.559619 5.461333 7.070476 9.069714 12.336762 0 0 1.80419 1.755429 0 3.510857-7.216762 10.581333-16.237714 21.113905-23.454476 31.695238 1.80419 5.266286 5.36381 10.532571 7.216762 15.847619l5.363809 15.798857c12.678095 3.559619 27.111619 5.315048 39.740953 7.070476 1.80419 8.777143 1.80419 17.554286 3.608381 26.380191-12.678095 5.266286-23.454476 12.336762-36.08381 17.554285 0 8.825905 0 19.407238-1.80419 28.184381 10.825143 7.021714 21.650286 15.847619 32.475428 22.918096-1.80419 7.021714-5.412571 14.043429-7.216762 21.065142 0 1.755429-1.80419 3.510857-1.80419 3.510858-14.433524 0-27.062857 0-41.496381 1.755428-3.657143 7.070476-7.265524 14.140952-10.873905 19.358476a13.165714 13.165714 0 0 0-3.608381 7.070477c5.412571 12.288 12.678095 22.869333 18.041905 35.157333-5.36381 7.070476-12.629333 12.336762-18.041905 19.358476-9.020952-3.510857-19.846095-8.777143-32.475428-14.043428z m308.662857 86.211047a31.98781 31.98781 0 0 0-3.657143 12.288v1.755429h-25.258667c-1.80419 3.510857-3.608381 8.777143-7.216762 12.336762 0 1.755429-1.80419 3.510857-1.80419 3.510857l10.825143 21.113905a77.092571 77.092571 0 0 0-10.825143 12.336761l-21.650286-10.581333c-3.608381 1.755429-5.412571 3.510857-9.020952 5.266286-3.608381 1.755429-7.216762 3.510857-10.825143 7.070476v24.624762c-3.608381 1.755429-7.216762 1.755429-10.825143 3.510857-1.80419 0-3.608381 1.755429-5.412571 1.755429-5.412571-5.266286-9.020952-12.336762-14.433524-17.554286-5.412571 1.706667-10.825143 1.706667-14.482286 1.706667-3.608381 7.070476-5.36381 14.09219-9.020952 21.113904v1.755429c-5.36381 0-10.825143-1.755429-16.237715-1.755429-1.80419-7.021714-3.608381-15.798857-5.363809-22.869333 0-1.755429-1.852952 0-1.852952-1.755429-5.36381-1.755429-9.020952-3.510857-14.433524-5.266285-7.216762 5.266286-12.629333 10.532571-19.846096 15.847619-5.412571-3.559619-9.020952-5.315048-14.433523-8.777143 1.80419-8.825905 3.608381-15.896381 5.412571-24.673524-3.608381-3.510857-9.020952-7.021714-12.678095-10.532571-5.36381 0-7.168 0-7.168-1.804191-7.216762 1.80419-16.237714 3.559619-23.454476 5.315048h-1.804191c-3.608381-5.315048-5.412571-8.777143-9.020952-14.092191 5.36381-7.021714 10.825143-12.336762 16.237714-19.358476-1.80419-5.266286-3.608381-8.777143-5.412571-14.043428-7.216762-1.80419-16.237714-3.559619-23.503238-5.315048 0-5.266286-1.80419-10.532571-1.804191-15.798857l21.699048-10.581334c0-5.266286 0-12.336762 1.80419-17.554285-5.412571-3.559619-12.678095-8.825905-18.041905-12.336762l-1.852952-1.755429c1.852952-3.559619 1.852952-8.777143 3.657143-12.336762v-1.755428h25.258667a36.766476 36.766476 0 0 1 7.216761-10.581334c0-1.755429 1.80419-3.510857 1.804191-3.510857l-10.825143-21.113904c3.608381-3.510857 7.216762-7.021714 10.825143-12.288l21.650286 10.532571c3.608381-1.755429 5.412571-3.510857 9.020952-5.266286 3.608381-1.755429 7.216762-3.510857 10.825143-7.021714V350.110476c3.608381-1.755429 7.216762-1.755429 10.825143-3.510857 1.80419 0 3.608381-1.755429 5.412571-1.755429 5.412571 5.266286 9.020952 12.336762 14.433524 17.603048 5.412571 0 9.020952-1.755429 14.433524-1.755428 3.608381-7.021714 5.412571-14.09219 9.020952-21.113905 5.412571 0 10.873905 0 16.286476 1.755428 1.80419 7.021714 3.608381 15.847619 5.36381 22.918096 5.461333 1.706667 10.873905 1.706667 14.482286 5.217523 1.80419 0 1.80419 1.755429 3.608381 0 5.36381-5.266286 10.825143-10.532571 18.041904-14.043428 5.36381 3.510857 9.020952 5.266286 14.433524 8.777143a100.59581 100.59581 0 0 0-3.608381 22.918095c0 1.706667 1.80419 1.706667 3.608381 3.462095 3.608381 3.510857 7.216762 5.315048 9.020953 8.777143 7.216762-1.706667 16.237714-5.266286 23.454476-7.021714 1.80419 1.755429 1.80419 3.559619 3.608381 5.315047 1.80419 1.755429 3.608381 5.266286 5.412571 7.021715 0 0 1.80419 1.755429 0 1.755428-5.36381 7.021714-9.020952 12.336762-14.433524 19.358476a24.576 24.576 0 0 1 3.608381 10.532572c1.80419 3.559619 1.80419 7.070476 3.608381 10.581333 7.216762 1.755429 16.237714 3.510857 23.454476 5.266286 1.80419 5.266286 1.80419 10.581333 1.804191 15.847619l-21.650286 10.532571c0 5.315048 0 12.336762-1.80419 17.603048 10.825143-3.510857 18.041905 1.755429 23.454476 7.070476z" fill="#FF5A2C" p-id="6715"></path></svg>