<?xml version="1.0" standalone="no"?><!DOCTYPE svg PUBLIC "-//W3C//DTD SVG 1.1//EN" "http://www.w3.org/Graphics/SVG/1.1/DTD/svg11.dtd"><svg t="1742807926308" class="icon" viewBox="0 0 1024 1024" version="1.1" xmlns="http://www.w3.org/2000/svg" p-id="3622" xmlns:xlink="http://www.w3.org/1999/xlink" width="256" height="256"><path d="M512 512m-512 0a512 512 0 1 0 1024 0 512 512 0 1 0-1024 0Z" fill="#e00669" p-id="3623"></path><path d="M221.856 350.7072v71.23712c0 18.99776 14.24512 28.49792 28.49408 28.49792h218.47296V322.20928H250.35008c-14.24768 0-28.49408 14.24512-28.49408 28.49792z m0 0" fill="#FFFFFF" p-id="3624"></path><path d="M772.7872 322.20928H554.31168v132.98048H772.7872c18.99392 0 28.49536-14.2464 28.49536-28.49536V350.7072c0-14.2528-14.25024-28.49792-28.49536-28.49792z m0 0M245.60512 773.40032c0 37.99296 33.24416 71.24096 71.23584 71.24096h151.98208V493.18656H245.60512v280.21376z m0 0" fill="#FFFFFF" p-id="3625"></path><path d="M554.31168 844.64128H706.2912c37.99808 0 71.24096-33.24928 71.24096-71.24096V488.43904H554.31168v356.20224z m0 0M492.5696 236.71936s-94.98368-56.98944-99.73504-56.98944c-4.7488 0-18.99776-4.75136-23.74528 9.49376-4.7488 14.25024-14.24896 47.49568-4.7488 66.49344 0 18.99776 23.74528 14.24512 28.49408 14.24512h94.98752c4.74752 0 14.24512 0 18.99776-9.49376 4.74752-9.49888-14.25024-18.99904-14.25024-23.74912z m0 0M630.304 269.96096c4.7488 0 23.7504 4.75264 28.49536-14.24512 4.75264-18.99776 0-52.2432-4.74496-66.49344-4.75264-14.24512-19.0016-9.49376-23.7504-9.49376-4.75136 0-99.73504 56.98944-99.73504 56.98944-4.75264 4.75136-14.25024 14.25152-9.50144 23.74912 0 9.49376 14.24896 9.49376 18.99776 9.49376h90.23872z m0 0" fill="#FFFFFF" p-id="3626"></path></svg>