<?xml version="1.0" standalone="no"?><!DOCTYPE svg PUBLIC "-//W3C//DTD SVG 1.1//EN" "http://www.w3.org/Graphics/SVG/1.1/DTD/svg11.dtd"><svg t="1742781037126" class="icon" viewBox="0 0 1024 1024" version="1.1" xmlns="http://www.w3.org/2000/svg" p-id="4545" xmlns:xlink="http://www.w3.org/1999/xlink" width="256" height="256"><path d="M597.596 138a388.384 388.384 0 0 1 292.608 132.992 503.92 503.92 0 0 1 61.364 87.432 48.024 48.024 0 0 1-41.952 71.38c-176.512 0.196-618.524 0.196-795.032 0.196a48.216 48.216 0 0 1-42.128-71.672 517.232 517.232 0 0 1 61.54-87.332 388.4 388.4 0 0 1 292.604-132.988c53.4-0.008 117.596-0.008 170.996-0.008z" fill="#FF9154" p-id="4546"></path><path d="M940 718H84v38.972c0 71.212 57.816 129.028 129.028 129.028H810.64c71.396 0 129.36-57.964 129.36-129.36v-38.64z" fill="#FF8541" p-id="4547"></path><path d="M957.632 690c0-15.452-12.544-28-28-28H94.368c-15.456 0-28 12.548-28 28s12.544 28 28 28h835.264c15.456 0 28-12.548 28-28z" fill="#FFD772" p-id="4548"></path><path d="M989.632 597c0-35.876-29.124-65-65-65H99.368c-35.876 0-65 29.124-65 65 0 35.876 29.124 65 65 65h825.264c35.876 0 65-29.124 65-65z" fill="#BB4E56" p-id="4549"></path><path d="M957.632 502.816a31.828 31.828 0 0 0-31.812-31.816H98.18a31.828 31.828 0 0 0-31.812 31.816 31.828 31.828 0 0 0 31.812 31.812h827.64a31.828 31.828 0 0 0 31.812-31.812z" fill="#FF406B" p-id="4550"></path><path d="M117.632 430h812s28 8.912 28 28-6.652 32-24 32c-17.344 0-13.524-19-48-19-34.472 0-37.424 39-84 39-46.572 0-69.416-39-100-39-30.58 0-49.28 39-92 39-42.716 0-51.46-39-96-39s-32.572 39-88 39-61.22-39-100-39-38.556 39-92 39c-53.44 0-49.748-39-92-39-42.248 0-32.596 15-48 15-15.404 0-24-16.288-24-28s7.588-28 48-28z" fill="#00CB74" p-id="4551"></path></svg>