<?xml version="1.0" standalone="no"?><!DOCTYPE svg PUBLIC "-//W3C//DTD SVG 1.1//EN" "http://www.w3.org/Graphics/SVG/1.1/DTD/svg11.dtd"><svg t="1742786120547" class="icon" viewBox="0 0 1024 1024" version="1.1" xmlns="http://www.w3.org/2000/svg" p-id="7791" xmlns:xlink="http://www.w3.org/1999/xlink" width="256" height="256"><path d="M730.112 318.0544c18.8416 41.984 48.5376 80.6912 88.8832 115.9168l0.4096 0.4096 0.4096 0.4096c58.9824 69.2224 90.3168 132.5056 106.496 173.2608 8.3968 21.504 15.5648 41.5744 20.6848 56.32 39.936-114.4832 33.3824-240.2304-18.6368-350.0032-65.9456-5.12-132.5056-3.8912-198.2464 3.6864zM281.1904 470.6304c75.776-55.0912 159.9488-97.6896 249.2416-126.1568-58.1632-80.896-145.408-113.4592-259.4816-97.0752-65.3312 9.4208-133.12 33.3824-164.4544 45.4656-60.8256 113.0496-72.0896 246.1696-30.72 367.8208 36.2496-41.7792 110.1824-120.832 205.4144-190.0544zM615.424 284.8768c6.3488 11.0592 12.288 22.1184 18.0224 33.1776 24.7808-4.9152 50.5856-9.0112 76.8-12.4928-11.264-30.3104-17.6128-62.2592-18.432-94.8224-2.048-66.3552 18.2272-112.64 19.0464-114.688l5.7344 2.4576C627.5072 55.0912 526.7456 40.96 429.2608 58.5728c46.4896 45.056 128.6144 125.5424 186.1632 226.304z" fill="#FE7642" p-id="7792"></path><path d="M705.536 211.1488c1.024 31.744 7.168 63.0784 18.6368 92.7744 64.9216-7.5776 130.2528-9.8304 195.584-6.3488-44.032-83.5584-112.64-151.7568-196.608-195.1744-1.4336 4.3008-19.456 48.3328-17.6128 108.7488zM414.72 242.688c52.6336 16.7936 96.256 49.5616 129.4336 97.4848l1.024-0.2048c23.3472-6.9632 47.9232-13.312 73.728-18.6368-5.12-10.24-10.4448-20.0704-15.7696-29.2864-65.7408-115.0976-161.1776-197.4272-199.4752-227.7376C283.8528 93.184 180.4288 169.1648 116.736 275.0464c33.1776-12.9024 91.5456-32.768 151.9616-41.3696 53.8624-7.9872 103.0144-4.9152 146.0224 9.0112zM536.9856 359.424c-104.2432 33.3824-188.0064 79.4624-246.9888 122.0608-102.8096 74.5472-177.7664 160.5632-207.4624 197.2224 42.5984 109.3632 125.3376 198.4512 231.2192 249.2416 217.2928-308.224 244.3264-471.6544 223.232-568.5248z" fill="#FE7642" p-id="7793"></path><path d="M626.0736 335.4624c-26.2144 5.7344-51.4048 12.4928-75.5712 19.8656 14.5408 63.0784 10.0352 128.2048-14.5408 204.1856-31.5392 97.6896-101.1712 232.6528-203.1616 377.2416 100.1472 42.1888 211.7632 47.7184 315.5968 15.7696 89.4976-263.9872 43.4176-479.0272-22.3232-617.0624z" fill="#FE7642" p-id="7794"></path><path d="M717.2096 323.1744c-0.4096-1.2288-1.024-2.2528-1.6384-3.4816-26.0096 3.2768-50.9952 7.5776-75.3664 12.6976 35.4304 73.5232 58.5728 152.3712 67.9936 233.472 13.7216 116.736 1.024 252.3136-40.1408 379.6992 124.928-45.2608 224.4608-142.1312 272.9984-265.8304-11.264-38.2976-46.2848-134.9632-131.6864-235.7248-41.3696-36.0448-72.2944-76.5952-92.16-120.832z" fill="#FE7642" p-id="7795"></path></svg>