<?xml version="1.0" standalone="no"?><!DOCTYPE svg PUBLIC "-//W3C//DTD SVG 1.1//EN" "http://www.w3.org/Graphics/SVG/1.1/DTD/svg11.dtd"><svg t="1745822194911" class="icon" viewBox="0 0 1024 1024" version="1.1" xmlns="http://www.w3.org/2000/svg" p-id="3734" xmlns:xlink="http://www.w3.org/1999/xlink" width="256" height="256"><path d="M159.685125 155.807803c229.868025-29.5383 459.790719-31.174177 689.784904-4.907631 35.964057 230.755351 43.785988 461.779844 23.478406 693.077684-245.558144 27.587023-491.049002 25.867039-736.464164-5.15995-19.542209-227.836846-11.812797-455.505478 23.200854-683.010103z" fill="#997647" p-id="3735"></path><path d="M870.290661 872.569955c-243.800312 29.878932-487.55016 28.020172-731.253749-5.58469-16.085421-2.249856-30.463474-16.674168-31.926933-32.01945-21.115006-225.246357-12.758998-450.408608 25.06382-675.486751 2.615721-15.332665 17.019006-29.647639 31.977396-31.792362 226.869618-31.952164 453.777084-33.722612 680.730809-5.311343 14.95839 1.905018 29.424756 16.224197 32.111967 31.800772 38.811072 228.585396 47.259598 457.372649 25.341372 686.357553-1.518127 15.606012-15.955055 30.038735-32.044682 32.036271zM163.760099 813.93071a3414.495409 3414.495409 0 0 0 681.971384 4.352526c15.2023-214.156879 8.591507-428.027795-19.832378-641.616953a3181.006587 3181.006587 0 0 0-642.558949 4.146464c-27.645897 210.838867-34.172583 421.875384-19.580057 633.117963z" p-id="3736"></path><path d="M107.11839 94.977577C47.251187 366.739187 36.561216 638.441922 75.044271 910.085782c285.054686 54.433906 570.117782 57.213634 855.193495 8.334982 39.479721-277.194908 28.789749-554.242628-32.069914-831.138957-263.69577-45.114875-527.378924-42.549618-791.049462 7.69577zM217.58423 220.956912a3807.955318 3807.955318 0 0 1 451.842628-9.739565C528.01393 363.757602 356.133322 535.352246 199.45922 680.171499a3705.551113 3705.551113 0 0 1 18.12501-459.214587z m570.685503 571.097626a3817.757963 3817.757963 0 0 1-467.272016 3.431556c151.001101-146.926127 319.98423-315.95131 463.285355-463.272739a3920.078062 3920.078062 0 0 1 3.986661 459.841183z" fill="#DFAC67" p-id="3737"></path><path d="M928.896263 927.722973c-284.179975 49.972041-568.359951 47.129232-852.539926-8.524221-5.260879-1.034513-10.143277-5.95476-10.875006-10.959113-39.34515-270.411696-28.415474-540.928526 32.789026-811.554694 1.139647-5.008559 6.01784-9.865725 10.870801-10.820337C371.465988 34.487984 633.786612 31.863852 896.107236 77.992214c4.852961 0.857889 9.752181 5.715055 10.912854 10.824542 62.217988 275.874431 73.147663 551.858201 32.789027 827.947104-0.752756 5.113692-5.64777 10.033938-10.912854 10.959113z m-845.529626-24.983918c279.507844 50.926653 559.036715 53.580222 838.586611 7.973323 36.657938-272.047573 26.438965-543.910111-30.656919-815.596025-259.111951-42.099647-518.20708-39.647934-777.276978 7.359343-56.1623 266.765667-66.381273 533.518719-30.652714 800.263359z m704.406866-100.91972a3680.819515 3680.819515 0 0 1-466.468797 3.549306c-4.003483-0.222883-7.691565-2.838604-9.344262-6.606588-1.656903-3.772189-0.941996-7.969117 1.812501-10.635301 151.169314-146.635959 320.106185-315.593856 463.138168-463.062473 2.603105-2.683006 6.732747-3.35586 10.488115-1.698957 3.746957 1.652698 6.38791 5.290316 6.661257 9.222308a3772.601035 3772.601035 0 0 1 4.125437 458.773027c-0.277552 5.382834-4.949684 10.067581-10.412419 10.458678zM344.669569 786.785248a3961.1474 3961.1474 0 0 0 434.142357-3.85209 4078.320756 4078.320756 0 0 0-2.842809-427.493717c-134.831573 137.922497-290.218842 293.356025-431.299548 431.345807z m-144.987466-97.008755a11.160969 11.160969 0 0 1-3.856296-0.946201c-3.78901-1.694752-6.320624-5.33237-6.413142-9.201282a3567.094538 3567.094538 0 0 1 18.730579-457.898316c0.55931-5.2777 5.231441-9.9246 10.425035-10.361955 150.046489-12.616016 300.135031-15.976082 450.261421-10.075992 3.805832 0.151392 7.38878 2.708238 9.079327 6.472017 1.690546 3.763778 1.148057 7.994349-1.387762 10.723614-141.581142 152.287934-313.415491 323.848936-469.816247 468.861634a9.495655 9.495655 0 0 1-7.022915 2.426481z m26.413733-459.958932a3854.167786 3854.167786 0 0 0-17.031622 427.619876c146.694834-136.063737 304.90809-293.98262 438.057527-437.060862a3971.021536 3971.021536 0 0 0-421.025905 9.440986z" fill="#DFAC67" p-id="3738"></path></svg>