<?xml version="1.0" standalone="no"?><!DOCTYPE svg PUBLIC "-//W3C//DTD SVG 1.1//EN" "http://www.w3.org/Graphics/SVG/1.1/DTD/svg11.dtd"><svg t="1745822241444" class="icon" viewBox="0 0 1024 1024" version="1.1" xmlns="http://www.w3.org/2000/svg" p-id="4816" xmlns:xlink="http://www.w3.org/1999/xlink" width="256" height="256"><path d="M673.39 430.91H617.4c-8.88 0-24.72-18.95-20.5-26.76 25.97-47.94 43.94-72.9 34.95-138.82-8.05-59.06-56.09-108.86-139.82-108.86s-122.31 51.31-122.31 134.87c0 50.5 24.58 95.26 62.42 122.98 7.17 5.25 3.49 16.59-5.39 16.59h-125.9c-42.56 0-77.06 34.5-77.06 77.06s34.5 77.06 77.06 77.06h95.3c6.84 0 11.28 7.22 8.18 13.33l-95.25 187.66c-18.8 37.03-3.18 82.27 34.46 99.82 37.67 17.56 82.39 0.41 98.65-37.84l64.11-150.83c5.91-13.91 25.62-13.91 31.53 0L601.94 848c16.26 38.25 60.98 55.4 98.65 37.84l-4.83-6.32c8.99-9.99 26.14-24.53 7.35-61.56l-88.24-210.08c-4.99-16.98 4.99-38.95 26.96-38.95l31.55 3c42.56 0 77.06-21.39 77.06-63.95s-34.5-77.06-77.06-77.06z" fill="#F49C00" p-id="4817"></path><path d="M644.84 448.09h-62.92c-25.97 0-31.96-16.98-22.97-30.96 31.77-49.41 46.94-97.87 42.94-138.82-9.99-96.87-63.08-123.84-146.81-123.84-33.96 3.99-85.79 53.53-85.79 137.09 0 50.5 24.58 95.26 62.42 122.98 7.17 5.25 3.49 16.59-5.39 16.59h-125.9c-42.56 0-77.06 34.5-77.06 77.06s34.5 77.06 77.06 77.06h95.3c6.84 0 11.28 7.22 8.18 13.33l-95.25 187.66c-18.8 37.03-3.18 82.27 34.46 99.82 37.67 17.56 82.39 0.41 98.65-37.84l64.11-150.83c5.91-13.91 25.62-13.91 31.53 0l64.11 150.83c16.26 38.25 30.62 59.85 68.28 42.29l4.99-2c3-6.99 21.97-10.99 9.99-44.94l-84.89-232.69c-6.99-24.97 8.99-44.94 30.96-44.94h17.98c42.56 0 65.91-15.36 65.91-57.92s-27.35-59.92-69.91-59.92z" fill="#FEB407" p-id="4818"></path><path d="M669.61 910.29c-11 0-22.02-2.03-32.63-6.1-23.24-8.91-41.4-26.44-51.13-49.34l-63.77-150.02-63.77 150.02c-9.74 22.91-27.9 40.43-51.13 49.34-23.24 8.91-48.46 8.03-71.02-2.49-22.54-10.51-39.42-29.25-47.54-52.76-8.12-23.51-6.39-48.67 4.87-70.85l89.11-175.56h-81.74c-52.14 0-94.56-42.42-94.56-94.56s42.42-94.56 94.56-94.56h103.15c-13.2-12.79-24.35-27.7-32.79-43.97-12.42-23.95-18.98-50.95-18.98-78.09 0-45.03 17.44-87.46 49.11-119.46 31.65-31.98 73.84-49.87 118.8-50.37 45.38-0.53 88.38 17.03 121.08 49.37 32.7 32.33 50.7 75.12 50.7 120.47 0 27.14-6.57 54.15-18.99 78.09-8.44 16.27-19.59 31.18-32.79 43.97H743.3c52.14 0 94.56 42.42 94.56 94.56s-42.42 94.56-94.56 94.56h-81.74l89.11 175.56c11.26 22.18 12.99 47.34 4.87 70.85-8.12 23.51-25 42.24-47.54 52.76-12.26 5.72-25.3 8.59-38.38 8.59zM522.07 669.25c13.92 0 26.43 8.28 31.87 21.08l64.11 150.83c5.99 14.09 17.16 24.87 31.46 30.36 14.3 5.48 29.81 4.94 43.69-1.53 13.87-6.47 24.25-17.99 29.25-32.46 4.99-14.46 3.93-29.94-3-43.59L624.2 606.28c-4.23-8.33-3.84-18.06 1.05-26.03 4.89-7.96 13.39-12.72 22.73-12.72h95.3c32.84 0 59.56-26.72 59.56-59.56s-26.72-59.56-59.56-59.56h-125.9c-11.57 0-21.75-7.38-25.34-18.37-3.6-11 0.26-22.99 9.61-29.83 34.6-25.34 55.26-66.04 55.27-108.86 0-35.93-14.32-69.88-40.31-95.58-26.01-25.72-60.14-39.66-96.08-39.26-35.69 0.4-69.19 14.6-94.31 39.99-25.14 25.41-38.99 59.09-38.99 94.85 0 42.82 20.66 83.51 55.26 108.86 9.35 6.85 13.21 18.84 9.61 29.84a26.61 26.61 0 0 1-25.34 18.37h-125.9c-32.84 0-59.56 26.72-59.56 59.56s26.72 59.56 59.56 59.56h95.3c9.35 0 17.84 4.75 22.73 12.72 4.89 7.96 5.28 17.69 1.05 26.03l-95.25 187.66c-6.93 13.64-7.99 29.12-3 43.59 4.99 14.46 15.38 25.99 29.25 32.46 13.88 6.47 29.39 7.01 43.69 1.53s25.47-16.26 31.46-30.36l64.11-150.83a34.56 34.56 0 0 1 31.87-21.08z" fill="#333333" p-id="4819"></path><path d="M518.25 590.12m-20.72 0a20.72 20.72 0 1 0 41.44 0 20.72 20.72 0 1 0-41.44 0Z" fill="#FFFFFF" p-id="4820"></path><path d="M518.25 506.23m-20.72 0a20.72 20.72 0 1 0 41.44 0 20.72 20.72 0 1 0-41.44 0Z" fill="#FFFFFF" p-id="4821"></path><path d="M461.33 266.55m-20.72 0a20.72 20.72 0 1 0 41.44 0 20.72 20.72 0 1 0-41.44 0Z" fill="#FFFFFF" p-id="4822"></path><path d="M575.18 266.55m-20.72 0a20.72 20.72 0 1 0 41.44 0 20.72 20.72 0 1 0-41.44 0Z" fill="#FFFFFF" p-id="4823"></path><path d="M518.5 383.5c-21.71 0-37.07-6.29-53-21.7-6.95-6.72-7.14-17.8-0.42-24.75 6.72-6.95 17.8-7.13 24.75-0.42 9.51 9.2 15.95 11.86 28.68 11.86 13.69 0 20.89-4.36 28.7-11.88 6.96-6.71 18.04-6.5 24.74 0.46 6.71 6.96 6.5 18.04-0.46 24.74-15.55 14.99-31.9 21.68-52.98 21.68z" fill="#FFFFFF" p-id="4824"></path></svg>